<?xml version="1.0" encoding="utf-8" ?>
<!-- Generated by AutoXChange 64-bit  V23.05.88 from Tailor Made Software -->
<!-- www.tailormade.com -->
<!DOCTYPE svg PUBLIC '-//W3C//DTD SVG 1.0//EN' 
'http://www.w3.org/TR/2001/REC-SVG-20010904/DTD/svg10.dtd'>
<svg id="tmsSVG18" contentScriptType="text/ecmascript" xmlns:xlink="http://www.w3.org/1999/xlink" zoomAndPan="magnify" 
contentStyleType="text/css" preserveAspectRatio="xMidYMid meet" 
width="2500" height="960.026" viewBox="0 0 2500 960.026" 
version="1.1" xmlns="http://www.w3.org/2000/svg" xmlns:cvjs="http://www.tailormade.com/" stroke-linecap="butt" stroke-linejoin="round" fill-rule="evenodd" >
<defs>
	<style id="cv_styles" type = "text/css">
	    <![CDATA[
	   #tmsSVG18 { background-color: white; opacity: 1.}
		:root {
		    --tmsMinLineWidth: 0.6;
		    --tmsMinDashLength: 0.6;
		    --tmsHLWidth: 0.6;
		    --tmsNumberOfLayouts: 1;
		    --tmsNumberOfSVGViewports: 0;
         --tmsMinFixedLineWidth: 0.6;
		    --tmsbPostFix: 0;
		}
		.tmsPoints {
		    fill: none;
		    stroke-width: var(--tmsMinLineWidth);
		    r: calc(var(--tmsMinLineWidth)/2.0);
		}
		.ZWhl {
		    stroke-width: var(--tmsHLWidth);
		}
		.ZW {
		    stroke-width: var(--tmsMinLineWidth);
		}
		.ZW6 {
		    stroke-width: calc(var(--tmsMinLineWidth)*6);
		}
		.ZW10 {
		    stroke-width: calc(var(--tmsMinLineWidth)*10);
		}
		.ZW20 {
		    stroke-width: calc(var(--tmsMinLineWidth)*20);
		}
		.ZW100 {
		    stroke-width: calc(var(--tmsMinLineWidth)*100);
		}
		.nZW {
		}
		.sLW_0_2{
		    stroke-width: calc(var(--tmsMinFixedLineWidth)*0.333333);
		}
		.sLW_0_6{
		    stroke-width: var(--tmsMinFixedLineWidth);
		}
		.hyperlinks:hover {
		    stroke-width: 3;
		}
		.hyperimage image{
			opacity: 0;
		}
		.hyperimage:hover image{
			opacity: 1;
		}
		.hyperimage:hover path{
			stroke-width: 3;
		}
		.hyperimage:visited{
			color: red;
		}
		.sLt_HIDDEN {
		    stroke-dasharray: calc(var(--tmsMinDashLength)*0.019344) calc(var(--tmsMinDashLength)*0.009672);
		}
		.sLt_PHANTOM2 {
		    stroke-dasharray: calc(var(--tmsMinDashLength)*0.04836) calc(var(--tmsMinDashLength)*0.009672) calc(var(--tmsMinDashLength)*0.009672) calc(var(--tmsMinDashLength)*0.009672) calc(var(--tmsMinDashLength)*0.009672) calc(var(--tmsMinDashLength)*0.009672);
		}
		.sLt_CENTER2 {
		    stroke-dasharray: calc(var(--tmsMinDashLength)*0.058032) calc(var(--tmsMinDashLength)*0.009672) calc(var(--tmsMinDashLength)*0.009672) calc(var(--tmsMinDashLength)*0.009672);
		}
		.sLt_CENTER {
		    stroke-dasharray: calc(var(--tmsMinDashLength)*0.096719) calc(var(--tmsMinDashLength)*0.019344) calc(var(--tmsMinDashLength)*0.019344) calc(var(--tmsMinDashLength)*0.019344);
		}
		.sLt_AMCONSTR {
		    stroke-dasharray: calc(var(--tmsMinDashLength)*773.677042) calc(var(--tmsMinDashLength)*4);
		}
		.sLt_HIDDEN2 {
		    stroke-dasharray: calc(var(--tmsMinDashLength)*0.009672) calc(var(--tmsMinDashLength)*0.004836);
		}
		.sLt_ACANSTGB {
		    stroke-dasharray: calc(var(--tmsMinDashLength)*0.012185) calc(var(--tmsMinDashLength)*0.003046) calc(var(--tmsMinDashLength)*0.003046) calc(var(--tmsMinDashLength)*0.003046) calc(var(--tmsMinDashLength)*0.003046) calc(var(--tmsMinDashLength)*0.003046);
		}
		.sLt_ACANSTGL {
		    stroke-dasharray: calc(var(--tmsMinDashLength)*0.006093) calc(var(--tmsMinDashLength)*0.003046);
		}
		.sLt_WIRE2 {
		    stroke-dasharray: calc(var(--tmsMinDashLength)*0.04836) calc(var(--tmsMinDashLength)*0.009672) calc(var(--tmsMinDashLength)*0.009672) calc(var(--tmsMinDashLength)*0.009672) calc(var(--tmsMinDashLength)*0.009672) calc(var(--tmsMinDashLength)*0.009672) calc(var(--tmsMinDashLength)*0.009672) calc(var(--tmsMinDashLength)*0.009672);
		}
		.sLt_DASHED {
		    stroke-dasharray: calc(var(--tmsMinDashLength)*0.038688) calc(var(--tmsMinDashLength)*0.019344);
		}
	]]></style>
	</defs>
<metadata>
<text id="cadviewer_worldUnits">
{ "globalOrigin": { "x": 57200.336811, "y" : 16043.236959}, 
						"units": "in",
						"measurementType": "English",
						"lengthType": "Architectural",
						"lengthPrecision": 6,
						"blockUnitsFormat": "Inches",
						"svgToWorldUnits": 13.462497,
						"worldToSVGUnits": 0.074280
}
</text>
<text id="cadviewer_drawingCoordinates">
{ "DWG": 
    { "lowerLeft": { "x": 57200.336811, "y" : 16043.236959}, 
      "upperRight": { "x": 90856.579770, "y" : 42092.664719} 
    },
 "SVG": 
    { "lowerLeft": { "x": 0.000000, "y" : 1393.013031}, 
      "upperRight": { "x": 2500.000000, "y" : 432.986969} 
    },
 "Drawing Height": 1826
}
</text>
<text id="cadviewer_vqBuilding"></text>
<text id="cadviewer_vqFloor"></text>
<text id="cadviewer_multiPages">
{ "multiPages": 1, 
                   "currentPage":1,
                   "pages" : [
                        { "fileName":"EdwardsBRAVAL6N_v3_extents", "pageName":"ModelSpace"}
                   ]
}
</text>
</metadata>
<g id="cv_main_drawing">
<g id="layer_FLOOR_PLAN" class="layer_FLOOR_PLAN"  cvjs:layerName="FLOOR_PLAN" cvjs:plottable="YES"
 cvjs:status="ON" visibility="visible">
<g id="cvclr_1" stroke="#808080" fill="none">
<path id="cv_2" class=" ZW" d="M1625.41,807.37v37.77h-18.89v-37.77h18.89M1606.52,845.14h-74.94l-14.21,14.21v43.47h-28.33v-55.2l30.8,-30.8h86.68v28.33" />
<path id="cv_3" class="ZW" d="M0,317.91L0,796.35M2500,327.35L2500,780.61M2386.69,317.91H2210.42M0,796.35H214.04M850.64,107.02l0,39.34M1329.08,107.02H1209.47M1329.08,107.02L1329.08,300.6M850.64,317.91h-7.87M1530.53,171.55L1530.53,300.6h-94.43M1857.88,171.55H1530.53M1857.88,107.02l0,22.03M2008.97,107.02H1857.88M2500,327.35H2386.69M2500,780.61h-18.95M2053.04,780.61h-44.07M1927.13,793.2h81.84M932.48,906.52H1104.03M1429.81,906.52l0,-48.79M1329.08,906.52l0,-48.79M1429.81,906.52h25.18M1637.55,906.52H1927.13M749.13,328.93L749.13,498.9M1927.13,906.52l0,-18.89M2053.04,793.2l0,-12.59M2008.97,793.2l0,-12.59M2386.69,327.35l0,-9.44M2488.98,338.37l0,75.54M2386.69,793.2l0,-12.59M2488.98,769.59h-7.93M2078.22,782.19H2361.51l0,-12.59M2078.22,769.59h-94.43M2078.22,782.19l0,-12.59M2053.04,793.2H2386.69M1983.79,782.19l0,-12.59M1916.12,782.19h67.67M1916.12,895.5l0,-7.87M1454.99,906.52l88.13,53.51l94.43,-53.51M1634.65,895.5h30.45M1543.32,947.25l91.33,-51.76M1458.07,895.5l85.24,51.76M1440.83,895.5h17.25M1440.83,895.5L1440.83,750.71M1318.07,886.06L1318.07,750.71M943.5,895.5h80.26M943.5,895.5L943.5,750.71M932.48,906.52L932.48,796.35M850.65,906.52L850.65,631.1M861.66,785.33L861.66,383.22M861.66,785.33h7.87M11.02,785.33H203.02M11.02,328.93L11.02,440.67M738.12,328.93L738.12,472.14M214.04,752.28l0,44.07M214.04,752.28h50.36M203.02,741.27l0,44.07M203.02,741.27h50.36M264.4,720.81h11.02M264.4,720.81l0,31.48M253.38,689.33l0,51.94M314.76,720.81l0,75.54M325.78,709.79l0,75.54M259.68,709.79h15.74M314.76,796.35H749.13M325.78,785.33H429.65M140.07,328.93l0,20.46M314.76,343.09h-40.92M319.48,349.39h-45.64M151.09,317.91H0M140.07,328.93H11.02M861.66,118.04l0,28.33M2374.1,338.37l0,-9.44M2361.51,324.21h-37.77M2008.97,333.65L2008.97,107.02M1997.95,335.22l0,-39.35M2053.04,327.35h-44.07M2053.04,338.37l0,-20.46M2078.22,338.37l0,-20.46M2488.98,338.37h-80.26M2053.04,333.65h-44.07M1997.95,118.04H1868.9l0,11.02M1868.9,182.56h-64.53M1541.55,182.56L1541.55,374.57M1318.07,118.04L1318.07,336.8M1530.53,306.89h-94.43M1209.47,169.97l0,-1.57M1159.11,169.97l0,-62.95H850.64M1209.47,169.97h-50.36M1220.49,173.12l0,-4.72M1148.1,176.27l0,-58.23H861.66M1266.13,176.27H1148.1M1318.07,118.04h-97.58" />
<path id="cv_4" class="sLt_DASHED ZW" d="M1946.02,906.52L1946.02,793.2M1927.13,906.52h18.88" />
<path id="cv_5" class="ZW" d="M1665.09,750.71h-1.57M1665.09,744.41h-1.57M1329.08,857.73h31.48M1329.08,857.73L1329.08,744.41M1429.81,851.43L1429.81,750.71M1318.07,750.71H1148.1M1429.81,750.71l0,-6.3M1399.91,851.43l0,6.3M1428.23,851.43l0,6.3M1398.33,851.43l0,6.3M1429.81,857.73l0,-6.3M1329.08,744.41h-72.39M1344.83,857.73l0,-6.3M1412.49,857.73l0,-6.3M1346.4,857.73l0,-6.3M1414.07,857.73l0,-6.3M1330.66,857.73l0,-6.3M2408.72,338.37l0,44.07M2402.42,338.37l0,44.07M2488.98,413.91h-80.26M2488.98,420.21h-80.26l0,99.15M2402.42,338.37h-28.33M2488.98,420.21L2488.98,550.83h-80.26M2488.98,557.13h-80.26l0,3.15M2488.98,557.13L2488.98,687.76h-7.93M2488.98,694.05h-7.93M2408.72,694.05l0,3.15M2488.98,694.05l0,75.54M2402.42,769.59h-40.92M2402.42,725.53h6.3M2408.72,697.2l11.97,25.67M2402.42,697.2h6.3M2402.42,727.1h6.3M2408.72,695.62h-6.3M2402.42,725.53l0,44.07M2408.72,725.53l0,44.07M2402.42,588.61h6.3M2408.72,560.28l11.97,25.67M2402.42,560.28h6.3M2402.42,590.18h6.3M2408.72,558.7h-6.3M2402.42,588.61L2402.42,697.2M2408.72,588.61l0,99.15M2402.42,547.69h6.3l11.97,-25.67M2402.42,519.36h6.3M2402.42,549.26h6.3M2402.42,517.78h6.3M2402.42,547.69l0,12.59M2408.72,547.69l0,3.15M2402.42,410.77h6.3l11.97,-25.67M2402.42,382.44h6.3M2402.42,412.34h6.3M2402.42,380.86h6.3M2402.42,410.77L2402.42,519.36M2408.72,410.77l0,3.15M1810.67,895.5l0,-69.24M1816.97,895.5l0,-69.24M1816.97,895.5h99.15M1604.5,744.41l0,-17.31M1610.8,744.41l0,-17.31M1665.09,895.5l0,-20.46M1671.39,895.5l0,-20.46M1663.52,744.41l0,6.3l-25.67,11.97M1635.19,744.41l0,6.3M1665.09,744.41l0,6.3M1633.62,744.41l0,6.3M1635.19,744.41h-24.39M1635.19,750.71H1440.83M1604.5,744.41H1429.81M1737.49,838.84h-56.66M1671.39,895.5h53.51M1665.09,846.71h6.3l11.97,25.67M1665.09,875.04h6.3M1665.09,845.14h6.3M1665.09,876.61h6.3M1665.09,846.71l0,-7.87M1671.39,846.71l0,-1.57M1671.39,826.25l0,-1.57M1724.9,895.5l0,-50.36M1728.05,895.5l0,-50.36M1734.34,895.5l0,-50.36M1737.49,895.5l0,-56.66M1728.05,895.5h6.3M1724.9,845.14h-53.51M1734.34,845.14h-6.3M1737.49,895.5h73.18M1723.32,877.4l0,11.02l-4.44,-1.61M1723.32,877.4l-4.44,1.61M1723.32,864.81l0,-14.16M1723.32,864.81h-14.16M1723.32,850.65h-14.16M1709.16,864.81l0,-14.16M1674.54,838.84l0,-9.44M1680.83,838.84l0,-50.36M1674.54,829.4h-9.44M1674.54,826.25h-9.44M1665.09,829.4l0,-4.72M1674.54,826.25l0,-31.48M1674.54,838.84h-9.44M1671.39,824.68h-6.3l-11.97,-25.67M1671.39,796.35h-6.3M1671.39,826.25h-6.3M1674.54,794.77h-9.44M1680.83,788.48h-9.44l0,-61.38M1665.09,796.35l0,-69.25M1671.39,796.35l0,-1.57M1810.67,618.51H1671.39M1810.67,612.21h-78.69M1610.8,612.21l0,-1.57M1665.09,618.51h-54.3M1665.09,612.21h-54.3M1671.39,612.21l0,-66.1M1665.09,612.21l0,-62.95M1810.67,612.21l0,-66.1M1665.09,697.2h-1.57M1665.09,690.9h-1.57M1665.09,690.9l0,-72.39M1610.8,690.9l0,-72.39M1604.5,698.77h6.3l11.97,25.67M1604.5,727.1h6.3M1604.5,697.2h6.3M1604.5,728.68h6.3M1604.5,698.77l0,-88.13M1610.8,698.77l0,-1.57M1663.52,690.9l0,6.3l-25.67,11.97M1635.19,690.9l0,6.3M1665.09,690.9l0,6.3M1633.62,690.9l0,6.3M1635.19,690.9h-24.39M1635.19,697.2h-24.39M1665.09,698.77h6.3l11.97,25.67M1665.09,727.1h6.3M1665.09,697.2h6.3M1665.09,728.68h6.3M1665.09,698.77l0,-1.57M1671.39,698.77l0,-80.26M1916.12,859.3h11.02M1916.12,887.63h11.02M1916.12,857.73h11.02M1927.13,889.2h-11.02M1916.12,859.3l0,-77.12M1927.13,859.3l0,-66.1M1916.12,683.03h-48.49M1916.12,689.33h-6.3M1916.12,736.54h-6.3M1916.12,742.84h-69.25M1916.12,549.26L1916.12,683.03M1916.12,689.33l0,47.21M1909.82,736.54l0,-47.21M1906.67,736.54l0,-47.21h-59.8M1906.67,736.54h-59.8M1818.54,742.84l0,-6.3M1846.87,742.84l0,-6.3M1816.97,742.84l0,-6.3M1848.44,742.84l0,-6.3M1818.54,736.54h-1.57M1818.54,742.84h-1.57M1905.1,720.02l0,11.02l-4.44,-1.61M1905.1,720.02l-4.44,1.61M1905.1,707.43l0,-14.16M1905.1,707.43h-14.16M1905.1,693.27h-14.16M1890.93,707.43l0,-14.16M1816.97,683.03L1816.97,549.26M1607.65,542.97l0,-18.89M1665.09,549.26h-54.3M1725.68,612.21l0,-66.1M1731.98,612.21l0,-66.1M1725.68,612.21h-54.3M1810.67,546.11h-48.79M1610.8,610.64h-6.3M1610.8,587.03h-6.3l0,-62.95M1610.8,587.03l0,-37.77M1725.68,546.11h-1.57M1724.11,542.97l0,3.15l-25.67,11.97M1695.78,542.97l0,3.15M1725.68,542.97l0,3.15M1694.21,542.97l0,3.15M1695.78,546.11h-24.39M1695.78,542.97h-88.13M1733.55,542.97l0,3.15l25.67,11.97M1761.88,542.97l0,3.15M1731.98,542.97l0,3.15M1763.46,542.97l0,3.15M1733.55,546.11h-1.57M1733.55,542.97h-9.44M1682.08,601.52l-8.33,8.33M1684.3,601.52l8.33,8.33M1694.21,589.39h-22.03l0,22.03h22.03l0,-22.03M1692.63,590.97l-8.33,8.33M1673.75,590.97l8.33,8.33M1673.75,590.97l0,18.89M1692.63,590.97h-18.89M1692.63,609.85l0,-18.89M1673.75,609.85h18.89M1695,612.21l0,-23.61M1671.39,612.21h23.61M1671.39,588.61l0,23.61M1695,588.61h-23.61M1989.3,674.38l0,-14.16M2003.46,674.38l0,-14.16h-14.16M2003.46,674.38h-14.16M1989.3,447.75l0,-14.16M2003.46,433.59h-14.16M2003.46,447.75l0,-14.16M2003.46,447.75h-14.16M2367.01,447.75l0,-14.16M2381.18,433.59h-14.16M2381.18,447.75l0,-14.16M2381.18,447.75h-14.16M2367.01,674.38l0,-14.16M2381.18,660.21h-14.16M2381.18,674.38l0,-14.16M2381.18,674.38h-14.16" />
<path id="cv_6" class="sLt_DASHED ZW" d="M2003.46,447.75H2367.01L2367.01,660.21H2003.46L2003.46,447.75" />
<path id="cv_7" class="ZW" d="M2078.22,338.37h-88.13M1898.8,443.82h-11.02M1898.8,446.96h-11.02M1607.65,443.82l0,-18.89M1728.83,443.82l0,-34.62M1731.98,443.82l0,-34.62M1851.59,443.82l0,-44.07M1857.89,446.96L1857.89,295.88M1607.65,524.08h-3.15l-11.97,-25.67M1607.65,495.75h-3.15M1607.65,525.65h-3.15M1607.65,494.18h-3.15M1604.5,396.6l0,-15.74M1607.65,396.6l0,-18.89M1604.5,495.75l0,-70.82M1607.65,495.75l0,-48.79M1604.5,396.6l0,28.33M1607.65,424.93l0,-28.33M1851.59,330.5H1739.85M1851.59,327.35h-47.21M1629.68,377.72h-22.03M1629.68,374.57h-18.89M1629.68,443.82l0,-69.25M1610.8,374.57l0,-44.07M1618.67,347.81l0,-12.59h-6.3l0,12.59h6.3M1618.67,369.85l0,-12.59h-6.3l0,12.59h6.3M1779.19,406.04h-39.34M1779.19,409.19h-47.21M1681.62,409.19l0,-3.15M1779.19,409.19l0,-6.29M1728.83,409.19h-47.21M1728.83,443.82h-3.15M1697.36,446.96l0,-3.15M1725.69,443.82l-25.67,-11.97M1725.69,446.96l0,-3.15M1695.78,446.96l0,-3.15M1727.26,443.82l0,3.15M1763.46,446.96l0,-3.15M1735.13,443.82l25.67,-11.97M1735.13,446.96l0,-3.15M1765.03,446.96l0,-3.15M1733.55,443.82l0,3.15M1697.36,443.82h-89.71M1697.36,446.96h-92.86M1735.13,443.82h-3.15M1735.13,446.96h-9.44M1724.11,406.04l0,-75.54M1720.96,377.72l0,-47.21M1739.85,377.72l0,-47.21M1736.7,406.04l0,-75.54M1720.96,406.04h-39.34M1736.7,406.04h-12.59M1720.96,377.72h-39.34M1779.19,377.72h-39.34M1720.96,330.5H1610.8M1736.7,330.5h-12.59M1720.96,406.04l0,-28.33M1739.85,406.04l0,-28.33M1719.39,386.37l0,11.02l-4.44,-1.61M1719.39,386.37l-4.44,1.61M1741.42,386.37l0,11.02l4.44,-1.61M1741.42,386.37l4.44,1.61M1719.39,358.04l0,11.02l-4.44,-1.61M1719.39,358.04l-4.44,1.61M1741.42,358.04l0,11.02l4.44,-1.61M1741.42,358.04l4.44,1.61M1779.19,380.86l-9.51,20.39M1779.19,380.86l0,-3.15M1681.62,380.86l9.51,20.39M1681.62,377.72l0,3.15M1681.62,402.9l0,3.15M1681.62,335.29l-9.51,20.39M1779.19,335.29l9.51,20.39M1681.62,377.72l0,-20.39M1779.19,377.72l0,-20.39M1681.62,335.29l0,-4.79M1779.19,335.29l0,-4.79M1831.13,443.82h18.89M1831.13,396.6h20.46M1831.13,330.5l0,69.25M1851.59,399.75h-20.46M1851.59,396.6l0,-66.1M1997.95,295.88H1857.89M1997.95,289.58H1804.38M1997.95,289.58L1997.95,118.04M1851.59,327.35l0,-34.62M1804.38,327.35l0,-3.15M1801.23,327.35l0,-3.15M1801.23,182.56H1541.55M1801.23,327.35H1604.5M1851.59,292.73h-47.21M1804.38,289.58l0,-1.57M1804.38,324.21h-3.15l-11.97,-25.67M1804.38,295.88h-3.15M1804.38,325.78h-3.15M1804.38,294.3h-3.15M1801.23,295.88l0,-7.87M1804.38,295.88l0,-3.15M1804.38,288.01h-3.15l-11.97,-25.67M1804.38,259.68h-3.15M1804.38,289.58h-3.15M1804.38,258.1h-3.15M1801.23,259.68l0,-77.12M1804.38,259.68l0,-38.56M1814.61,206.96h-10.23M1814.61,221.12l0,-14.16M1814.61,221.12h-10.23M1804.38,206.96l0,-24.39M2377.24,9.44H2005.82M2386.69,-0H1996.38l0,67.67M2005.82,107.02l0,-1.57M2377.24,317.91L2377.24,9.44M2386.69,317.91L2386.69,-0M2361.51,328.93l0,-11.02M2323.73,328.93l0,-11.02M2304.85,328.93l0,-11.02M2134.88,328.93l0,-11.02M2115.99,328.93l0,-11.02M2374.1,328.93H2210.42M2304.85,324.21h-92.85M2115.99,324.21h-37.77M2182.09,328.93l0,-11.02l25.67,-11.97M2210.42,328.93l0,-11.02M2180.52,328.93l0,-11.02M2211.99,328.93l0,-11.02M2182.09,317.91H2053.04M2180.52,324.21h-45.64M2182.09,328.93H2078.22M2005.82,105.45h-9.44M2005.82,67.67h-9.44M2005.82,66.1h-9.44M2005.82,67.67l0,-58.23M1996.38,105.45l0,1.57M1958.61,105.45h37.77M1952.31,165.25h-83.41M1955.46,162.1h-86.56M1996.38,220.33l0,-99.15M1993.23,217.19l0,-92.86M1955.46,217.19l0,-55.08M1952.31,220.33l0,-55.08M1996.38,220.33h-44.07M1993.23,217.19h-37.77M1993.23,124.33H1868.9M1996.38,121.18H1868.9M1868.9,157.38h-11.02l-11.97,-25.67M1868.9,129.05h-11.02M1868.9,158.96h-11.02M1868.9,127.48h-11.02M1857.88,157.38l0,14.16M1868.9,157.38l0,25.18M1902.9,124.33l0,37.77M1910.76,124.33l0,37.77M1918.63,124.33l0,37.77M1926.5,124.33l0,37.77M1934.37,124.33l0,37.77M1942.24,124.33l0,37.77M1950.11,124.33l0,37.77M1993.23,166.58h-37.77M1993.23,174.45h-37.77M1993.23,182.31h-37.77M1990.72,190.18h-35.26M1981.71,198.05h-26.25M1972.71,205.92h-17.25M1963.7,213.79h-8.24M1959.81,217.19l14.86,-12.98M1976.24,199.84l4.29,1.78l-7.84,1.78l4.29,1.78M1978.57,200.8l14.66,-12.81M1607.65,471.36h-3.15M1607.65,470.57h-3.15M1607.65,472.14h-3.15M1607.65,448.54h-3.15M1606.08,494.18l0,-22.03M1606.08,470.57l0,-22.03M1148.1,895.5L1148.1,780.61M1144.95,895.5L1144.95,780.61M1308.62,886.06h9.44M1308.62,895.5l0,-9.44M1144.95,752.28h3.15l11.97,25.67M1144.95,780.61h3.15M1144.95,782.19h3.15M1144.95,752.28l0,-1.57M1148.1,752.28l0,-1.57M1144.95,750.71h-3.15M1859.46,446.96l0,-3.15l25.67,-11.97M1887.79,446.96l0,-3.15M1889.36,446.96l0,-3.15M1859.46,446.96h-96M1859.46,443.82h-96M1990.08,352.53l0,-17.31M1997.95,335.22h-7.87M1993.23,352.53l0,-14.16M1993.23,354.58h-3.15M1898.02,446.96l0,-3.15M1914.09,445.72l-0.55,-3.1M1929.75,441.75l-1.08,-2.96M1944.54,435.15l-1.57,-2.73M1958.02,426.09l-2.02,-2.41M1969.79,414.8l-2.41,-2.02M1979.48,401.61l-2.73,-1.57M1986.77,386.88l-2.96,-1.08M1991.4,371.04l-3.1,-0.55M1023.77,895.5L1023.77,780.61M1026.91,895.5L1026.91,780.61M937.21,785.33l0,-40.92M1256.69,744.41L1256.69,410.77M1250.39,744.41l0,-88.13M1250.39,744.41H1141.8M1111.9,744.41l0,-88.13M1105.6,744.41l0,-88.13M1063.11,744.41l0,-88.13M1056.81,744.41l0,-88.13M981.27,744.41l0,-88.13M974.98,744.41l0,-94.43M1250.39,656.28H1111.9M1250.39,649.98H974.98M1105.6,656.28h-42.49M1056.81,656.28h-75.54M974.98,744.41h-37.77M1056.81,744.41h-1.57M1105.6,744.41h-1.57M1028.49,750.71l0,-6.3M1055.24,750.71l0,-6.3M1026.91,750.71l0,-6.3M1056.81,744.41l0,6.3M1075.7,750.71l0,-6.3M1104.03,744.41l-25.67,-11.97M1104.03,750.71l0,-6.3M1074.13,750.71l0,-6.3M1105.6,744.41l0,6.3M1031.14,732.44l24.1,11.97M1028.49,744.41h-47.21M1028.49,750.71h-84.98M1075.7,744.41h-12.59M1075.7,750.71h-20.46M1113.47,750.71l0,-6.3l25.67,-11.97M1141.8,750.71l0,-6.3M1111.9,750.71l0,-6.3M1143.37,750.71l0,-6.3M1113.47,744.41h-1.57M1113.47,750.71h-9.44M1026.91,895.5h77.12M1026.91,780.61h-3.15M1023.77,752.28l-11.97,25.67M1026.91,752.28h-3.15M1026.91,782.19h-3.15M1023.77,752.28l0,-1.57M1026.91,752.28l0,-1.57M1132.36,895.5l0,11.02l-25.67,11.97M1104.03,895.5l0,11.02M1133.93,895.5l0,11.02M1102.46,895.5l0,11.02M1132.36,906.52H1329.08M1132.36,895.5h12.59M1148.1,895.5H1308.62M1066.26,657.85h11.02l-1.61,4.44M1066.26,657.85l1.61,4.44M1104.03,657.85h-18.34M1104.03,673.09l0,-15.24M1085.69,673.09l0,-15.24M1104.03,673.09h-18.34M860.09,906.52L860.09,796.35M850.65,906.52h9.44M932.48,897.07h-72.4M932.48,889.2h-72.4M932.48,881.34h-72.4M932.48,873.47h-72.4M869.53,819.96l0,-34.62M916.75,819.96l0,-34.62M850.65,796.35h18.89M916.75,796.35h15.74M916.75,785.33h20.46M962.39,494.18h-1.57M965.53,497.33H861.66M871.11,494.18L871.11,383.22M874.25,467.03l0,-27.15M871.11,494.18h-9.44M1160.69,321.85H1044.22M1163.83,318.7H1044.22M1160.69,433.59L1160.69,321.85M1163.83,430.44L1163.83,318.7M1250.39,436.73h-56.66M1160.69,433.59H1020.62M874.25,433.59l0,-50.36M1020.62,433.59l0,-28.33M1004.88,433.59l0,-28.33M1008.03,433.59l0,-59.81M1017.47,433.59l0,-59.81M1017.47,433.59h-9.44M1004.88,433.59h-56.66M965.53,497.33l0,-60.59M962.39,494.18l0,-57.44M960.81,494.18l0,-57.44M957.66,467.03l0,-27.15M962.39,436.73h-1.57M957.66,494.18h-83.41M1020.62,370.63h-6.3M1017.47,373.78h-9.44M957.66,373.78l0,-3.15M1020.62,370.63h47.21M1020.62,373.78h47.21l0,-3.15M1004.88,373.78h-47.21M1067.83,402.11h-47.21M1067.83,405.26h-47.21M1004.88,405.26h-47.21M1004.88,402.11h-47.21M1004.88,402.11l0,-28.33M1020.62,402.11l0,-28.33M957.66,402.11l0,3.15M1067.83,402.11l0,3.15M976.55,433.59l0,-28.33M976.55,402.11l0,-28.33l28.33,28.33M1004.88,373.78l0,28.33M976.55,405.26l28.33,28.33M976.55,433.59l28.33,-28.33M1004.88,373.78l-28.33,28.33M871.11,370.63l0,-37.77M844.35,328.93h-1.57M957.66,439.88h-9.44l0,-6.3M919.89,439.88l0,-6.3M919.89,439.88h-45.64M919.89,433.59h-45.64M916.98,467.03h-42.73M916.98,494.18l0,-3.15M874.25,494.18l0,-27.15M875.83,458.96l0,-11.02l4.44,1.61M875.83,458.96l4.44,-1.61M875.83,475.09l0,11.02l4.44,-1.61M875.83,475.09l4.44,1.61M916.98,491.03h-20.46M916.98,463.88h-20.46M916.98,443.03l0,-3.15M916.98,470.18l0,-6.3M957.66,494.18l0,-27.15M949.8,459.75l0,-12.59h6.3l0,12.59h-6.3M949.8,486.9l0,-12.59h6.3l0,12.59h-6.3M908.88,383.22h-34.62M893.14,433.59l0,-50.36M908.88,383.22l0,-12.59M905.73,380.08l0,-9.44M896.29,380.08l0,-9.44M886.84,380.08l0,-9.44M877.4,380.08l0,-9.44M905.73,380.08h-28.33M908.88,370.63h-47.21M871.11,383.22h-9.44M871.11,361.19h-9.45M871.11,351.75h-9.45M871.11,342.3h-9.45M883.7,332.86h-22.03M861.66,370.63l0,-37.77M1011.17,370.63l0,-48.79M1014.32,370.63l0,-48.79M1011.17,370.63h-53.51M1011.17,321.85h-1.57M1009.6,318.7l0,3.15l-25.67,11.97M981.27,318.7l0,25.18M1011.17,318.7l0,3.15M979.7,318.7l0,3.15M1015.9,318.7l0,3.15l25.67,11.97M1044.22,318.7l0,3.15M1014.32,318.7l0,3.15M1045.8,318.7l0,3.15M981.27,321.85h-97.58M981.27,318.7H861.66M1015.9,318.7h-6.29M1015.9,321.85h-1.57M981.27,343.88h-3.15M978.12,321.85l0,22.03M968.68,321.85l0,9.44M978.12,331.29h-94.43M959.24,321.85l0,9.44M949.8,321.85l0,9.44M940.35,321.85l0,9.44M930.91,321.85l0,9.44M921.47,321.85l0,9.44M912.02,321.85l0,9.44M902.58,321.85l0,9.44M893.14,321.85l0,9.44M883.7,321.85l0,11.02M1047.37,321.85l0,22.03M1044.22,318.7l0,25.18h3.15M1056.81,321.85l0,9.44M1066.26,321.85l0,9.44M1160.69,331.29H1047.37M1075.7,321.85l0,9.44M1085.14,321.85l0,9.44M1094.59,321.85l0,9.44M1104.03,321.85l0,9.44M1160.69,321.85H1047.37M1113.47,321.85l0,9.44M1122.91,321.85l0,9.44M1132.36,321.85l0,9.44M1141.8,321.85l0,9.44M1151.24,321.85l0,9.44M1022.19,393.45l0,-11.02l4.44,1.61M1022.19,393.45l4.44,-1.61M1022.19,424.93l0,-11.02l4.44,1.61M1022.19,424.93l4.44,-1.61M1132.36,405.26l28.33,28.33M1132.36,433.59l28.33,-28.33M1132.36,433.59l0,-62.95M1132.36,405.26h28.33M1129.21,433.59l0,-59.81M1110.32,373.78l0,-3.15M1110.32,373.78h18.89M1110.32,370.63h22.03M1111.9,433.59l0,-59.81M1253.54,430.44h-59.81M1250.39,649.98L1250.39,436.73M1165.41,436.73l0,-6.3l25.67,-11.97M1193.74,436.73l0,-6.3M1163.83,436.73l0,-6.3M1195.31,436.73l0,-6.3M1165.41,430.44h-1.57M1165.41,436.73H965.53M1162.26,498.11l0,-61.38M1163.83,498.11l0,-61.38M1196.88,498.11l0,-61.38M1195.31,498.11l0,-61.38M1196.88,474.5h-34.62M1196.88,482.37h-34.62M1196.88,490.24h-34.62M1196.88,498.11h-34.62M1323.58,433.59h-14.16M1309.41,447.75l0,-14.16M1323.58,447.75h-14.16M1323.58,447.75l0,-14.16M1550.2,433.59h-14.16M1536.04,447.75l0,-14.16M1550.2,447.75h-14.16M1550.2,447.75l0,-14.16M1323.58,660.21h-14.16M1309.41,674.38l0,-14.16M1323.58,674.38h-14.16M1323.58,674.38l0,-14.16M1550.2,660.21h-14.16M1536.04,674.38l0,-14.16M1550.2,674.38h-14.16M1550.2,674.38l0,-14.16M1541.55,380.86H1436.1M1530.53,374.57h-94.43M1530.53,306.89l0,67.67M1329.08,306.89l0,67.67M1407.77,380.86l0,-6.3M1436.1,374.57l-25.67,-11.97M1436.1,380.86l0,-6.3M1406.2,380.86l0,-6.3M1437.68,374.57l0,6.3M1407.77,306.89l0,-6.3M1436.1,300.6l-25.67,-11.97M1436.1,306.89l0,-6.3M1406.2,306.89l0,-6.3M1437.68,300.6l0,6.3M1407.77,380.86H1209.47M1330.66,374.57h-1.57M1407.77,306.89h-78.69M1407.77,300.6h-78.69M1451.05,380.86l0,-6.3M1452.63,380.86l0,-6.3M1466.79,380.86l0,-6.3M1468.37,380.86l0,-6.3M1482.53,380.86l0,-6.3M1484.1,380.86l0,-6.3M1498.27,380.86l0,-6.3M1499.84,380.86l0,-6.3M1514.01,380.86l0,-6.3M1515.58,380.86l0,-6.3M1528.96,380.86l0,-6.3M1530.53,380.86l0,-6.3M1451.05,306.89l0,-6.3M1452.63,306.89l0,-6.3M1466.79,306.89l0,-6.3M1468.37,306.89l0,-6.3M1482.53,306.89l0,-6.3M1484.1,306.89l0,-6.3M1498.27,306.89l0,-6.3M1499.84,306.89l0,-6.3M1514.01,306.89l0,-6.3M1515.58,306.89l0,-6.3M1528.96,306.89l0,-6.3M1530.53,306.89l0,-6.3M1330.66,300.6l0,6.3M1330.66,374.57l0,6.3M1329.08,374.57l0,6.3M1407.77,374.57h-77.12M1349.15,380.86l0,-6.3M1350.72,380.86l0,-6.3M1368.43,380.86l0,-6.3M1370,380.86l0,-6.3M1387.71,380.86l0,-6.3M1389.28,380.86l0,-6.3M1349.15,306.89l0,-6.3M1350.72,306.89l0,-6.3M1368.43,306.89l0,-6.3M1370,306.89l0,-6.3M1387.71,306.89l0,-6.3M1389.28,306.89l0,-6.3" />
<path id="cv_8" class="sLt_DASHED ZW" d="M1323.58,447.75H1536.04L1536.04,660.21H1323.58L1323.58,447.75" />
<path id="cv_9" class="ZW" d="M1353.48,689.98L1353.48,576.98M1355.05,689.98L1355.05,576.33M1400.69,689.98L1400.69,557.23M1399.12,689.98L1399.12,557.89M1407.5,554.38l-30.38,12.71M1399.12,682.11h-44.07M1399.12,674.24h-44.07M1399.12,666.37h-44.07M1399.12,658.5h-44.07M1399.12,650.63h-44.07M1399.12,642.76h-44.07M1399.12,634.89h-44.07M1399.12,597.12h-44.07M1399.12,589.25h-44.07M1399.12,581.38h-44.07M1399.12,573.51h-37.34M1399.12,565.64h-18.54M1368.94,567.4l4.84,3.85l-1,-5.22l4.34,3.4l0,-5.44M1371.51,569.44l-25.74,10.77M1209.47,380.86l0,-7.87M1318.07,377.72H1212.62M1253.54,382.44h3.15l11.97,25.67M1253.54,410.77h3.15M1250.39,380.86h6.3M1253.54,412.34h3.15M1253.54,430.44l0,-19.67M1253.54,382.44l0,-1.57M1256.69,382.44l0,-1.57M1212.62,377.72l0,-4.72M1266.13,321.06h-53.51M1266.13,317.91h-56.66M1318.07,339.94h-51.94M1318.07,336.8h-7.87M1310.2,132.2L1310.2,336.8M1307.05,135.35L1307.05,336.8M1269.28,173.12L1269.28,336.8M1266.13,176.27L1266.13,317.91M1307.05,336.8h-37.77M1266.13,321.06l0,18.89M1209.47,344.67h3.15M1212.62,372.99l11.97,-25.67M1209.47,372.99h3.15M1209.47,343.09h3.15M1212.62,374.57h-3.15M1209.47,344.67l0,-26.75M1212.62,344.67l0,-23.61M1318.07,339.94l0,37.77M1305.15,352.86l-8.33,8.33M1307.38,352.86l8.33,8.33M1317.28,340.73h-22.03l0,22.03h22.03l0,-22.03M1315.71,342.3l-8.33,8.33M1296.82,342.3l8.33,8.33M1296.82,342.3l0,18.89M1315.71,342.3h-18.89M1315.71,361.19l0,-18.89M1296.82,361.19h18.89M1318.07,363.55l0,-23.61M1294.46,363.55h23.61M1294.46,339.94l0,23.61M1318.07,339.94h-23.61M1269.28,173.12h-48.79M1307.05,135.35h-86.56M1310.2,132.2h-89.71M1220.49,140.07h-11.02M1209.47,168.4l-11.97,-25.67M1220.49,168.4h-11.02M1220.49,138.5h-11.02M1209.47,169.97h11.02M1209.47,140.07l0,-33.05M1220.49,140.07l0,-4.72M1220.49,132.2l0,-14.16M1258.26,173.12l0,-37.77M1266.13,173.12l0,-37.77M1269.28,176.27h37.77M1269.28,184.14h37.77M1269.28,192.01h37.77M1269.28,199.88h37.77M1269.28,207.74h37.77M1288.16,154.18h-49.51M1288.16,233.83l0,-79.65M1294.26,224.91l-6.09,8.92M1282.07,224.91l6.09,8.92M140.07,538.24H11.02M140.07,531.95H11.02M140.07,683.03H11.02M146.36,689.33H11.02l0,96M140.07,456.41H11.02M140.07,450.11h-97.58M11.02,456.41l0,75.54M11.02,538.24L11.02,683.03M39.35,412.34l0,28.33M42.49,412.34l0,37.77M140.07,349.39l0,61.38M146.36,349.39l0,61.38M843.56,569.72h-1.57M855.37,558.7h-13.38M749.13,569.72l0,12.59M712.94,328.93L712.94,472.14M709.79,328.93L709.79,472.14M738.12,328.93h-25.18M709.79,328.93H588.61M738.12,475.29h-40.92M738.12,472.14h-25.18M709.79,472.14h-86.56M738.12,475.29l0,23.61M588.61,328.93L588.61,472.14M585.46,328.93L585.46,472.14h-6.3M594.9,475.29l0,-3.15l25.67,-11.97M623.23,475.29l0,-3.15M593.33,475.29l0,-3.15M624.8,475.29l0,-3.15M594.9,475.29h-15.74M594.9,472.14h-6.3M585.46,328.93H426.5M426.5,571.29l0,-96M420.21,571.29l0,-70.82M420.21,328.93h-94.43M325.78,709.79l0,-28.33M319.48,709.79l0,-34.62M426.5,472.14L426.5,328.93M420.21,423.36h-94.43M420.21,417.06h-94.43M325.78,681.46h53.51M319.48,675.17h59.81M446.96,627.95h-9.44M509.92,634.25h-1.57M513.06,634.25h-4.72M325.78,627.95l0,-20.46M319.48,634.25l0,-26.75M429.65,681.46L429.65,785.33M435.95,678.31L435.95,785.33M480.01,678.31L480.01,785.33M483.16,678.31L483.16,785.33M435.95,678.31h9.44M483.16,678.31h72.39M435.95,785.33h44.07M483.16,785.33H593.33L593.33,678.31M596.47,785.33L596.47,678.31M596.47,785.33H738.12M596.47,678.31h9.44M649.98,714.51h88.13M653.13,711.36h84.99M649.98,714.51l0,-36.2M653.13,711.36l0,-36.2M738.12,714.51l0,70.82M697.2,475.29L697.2,613.79M694.05,475.29L694.05,613.79M697.2,670.44h40.92M697.2,661.79h40.92M697.2,653.13h40.92M697.2,644.48h40.92M697.2,635.82h40.92M697.2,627.16h40.92M697.2,618.51h40.92M738.12,613.79h11.02M738.12,582.31h11.02M738.12,612.21l0,99.15M749.13,613.79L749.13,796.35M738.12,583.88h11.02l11.97,25.67M738.12,612.21h11.02M742.84,582.31h6.3M742.84,613.79h6.3M694.05,613.79h3.15M698.77,672.02l0,-58.23M700.35,673.59l0,-59.81M692.48,672.02l0,-58.23M690.9,673.59l0,-59.81h9.44M690.9,673.59h9.44M697.2,670.44l0,-51.94M692.48,672.02h6.3M509.92,475.29l0,18.89M513.06,634.25L513.06,522.51M509.92,631.1h-1.57M480.01,634.25l0,-3.15M508.34,631.1l-25.67,-11.97M508.34,634.25l0,-3.15M478.44,634.25l0,-3.15M446.96,577.59h-9.44M453.26,631.1l0,-33.05M466.17,618.18l8.33,-8.33M463.95,618.18l-8.33,-8.33M454.04,630.31h22.03l0,-22.03h-22.03l0,22.03M455.62,628.74l8.33,-8.33M474.5,628.74l-8.33,-8.33M474.5,628.74l0,-18.89M455.62,628.74h18.89M455.62,609.85l0,18.89M474.5,609.85h-18.89M453.26,607.49l0,23.61M476.86,607.49h-23.61M476.86,631.1l0,-23.61M453.26,631.1h26.75M446.96,627.95l0,-50.36M437.52,627.95l0,-50.36M431.22,627.95l0,-50.36M453.26,571.29h-26.75M420.21,500.47h-94.43M420.21,494.18h-94.43M453.26,598.05h56.66M453.26,594.9h56.66M453.26,594.9l0,-23.61M509.92,598.05l0,33.05M480.01,634.25h-61.38M431.22,627.95h-12.59M431.22,577.59h-42.49M420.21,571.29h-94.43M382.44,634.25l0,-12.59M388.73,627.95l0,-50.36M371.75,588.28l8.33,-8.33M369.52,588.28l-8.33,-8.33M359.62,600.41h22.03l0,-22.03h-22.03l0,22.03M361.19,598.84l8.33,-8.33M380.08,598.84l-8.33,-8.33M380.08,598.84l0,-18.89M361.19,598.84h18.89M361.19,579.95l0,18.89M380.08,579.95h-18.89M358.83,577.59l0,23.61M382.44,577.59h-23.61M382.44,601.2l0,-23.61h-56.66M382.44,601.2h-23.61M382.44,612.21h-17.31M382.44,615.36h-17.31M382.44,621.66h-17.31M358.83,601.2l0,26.75M365.12,612.21l0,3.15M358.83,627.95h-33.05M365.12,634.25h-45.64M382.44,601.2l0,-23.61M382.44,615.36l0,-3.15M365.12,621.66l0,12.59M390.31,634.25l0,-6.3l25.67,-11.97M418.63,634.25l0,-6.3M388.73,634.25l0,-6.3M420.21,634.25l0,-6.3M390.31,627.95h-1.57M390.31,634.25h-7.87M415.56,605.07h14.07l0,-18.22h-14.07l0,18.22M325.78,571.29l0,-40.92M319.48,579.16h6.3l11.97,25.67M319.48,607.49h6.3M319.48,577.59h6.3M319.48,609.07h6.3M319.48,579.16l0,-48.79M325.78,579.16l0,-1.57M473.72,675.17l0,3.15M445.39,678.31l25.67,11.97M445.39,675.17l0,3.15M475.29,675.17l0,3.15M443.81,678.31l0,-3.15M473.72,675.17h81.84M473.72,678.31h6.3M634.25,675.17l0,3.15M605.92,678.31l25.67,11.97M605.92,675.17l0,3.15M635.82,675.17l0,3.15M604.34,678.31l0,-3.15M634.25,678.31h15.74M634.25,675.17h18.89M555.56,675.17l0,3.15M583.88,678.31l-25.67,11.97M583.88,675.17l0,3.15M553.98,675.17l0,3.15M585.46,678.31l0,-3.15M583.88,675.17h22.03M583.88,678.31h9.44M379.29,681.46l0,-6.3M407.62,675.17l-25.67,-11.97M407.62,681.46l0,-6.3M377.71,681.46l0,-6.3M409.19,675.17l0,6.3M407.62,675.17h37.77M407.62,681.46h22.03M509.92,475.29h-83.41M579.16,475.29l0,-3.15l-25.67,-11.97M550.83,475.29l0,-3.15M580.74,475.29l0,-3.15M549.26,475.29l0,-3.15M550.83,472.14H426.5M550.83,475.29h-37.77M513.06,522.51h-3.15M509.92,494.18l-11.97,25.67M513.06,494.18h-3.15M513.06,524.08h-3.15M509.92,492.6h3.15M513.06,494.18l0,-18.89M509.92,522.51l0,72.4M694.05,475.29h-70.82M325.78,494.18l0,-1.57M325.78,417.06l0,-1.57M319.48,387.16h6.3M325.78,415.49l11.97,-25.67M319.48,415.49h6.3M319.48,385.58h6.3M325.78,417.06h-6.3M319.48,387.16l0,-37.77M325.78,387.16l0,-58.23M319.48,530.38h6.3M325.78,502.05l11.97,25.67M319.48,502.05h6.3M319.48,531.95h6.3M325.78,500.47h-6.3M319.48,424.93l0,-9.44M325.78,502.05l0,-1.57M319.48,464.27h6.3M325.78,492.6l11.97,-25.67M319.48,492.6h6.3M319.48,462.7h6.3M325.78,494.18h-6.3M325.78,492.6l0,1.57M319.48,464.27l0,-40.92M325.78,464.27l0,-40.92M319.48,502.05l0,-9.44M325.78,502.05l0,-1.57M844.35,328.93l0,41.71M855.37,558.7L855.37,370.63h-11.02M842.78,317.91l0,11.02l-25.67,11.97M814.45,317.91l0,11.02M844.35,317.91l0,11.02M812.87,317.91l0,11.02M814.45,328.93h-65.31M814.45,317.91H314.76M749.13,527.23h-11.02M738.12,498.9l-11.97,25.67M749.13,498.9h-11.02M749.13,528.8h-11.02M738.12,497.32h11.02M738.12,527.23l0,56.66M749.13,527.23l0,31.48M303.75,709.79l0,11.02l-25.67,11.97M275.42,709.79l0,11.02M305.32,709.79l0,11.02M273.84,709.79l0,11.02M303.75,720.81h11.02M303.75,709.79h15.74M198.3,629.53l0,59.8M204.6,629.53l0,48.79M198.3,689.33h55.08M204.6,686.18h48.79M204.6,681.46h48.79M204.6,678.31h48.79M259.68,709.79l0,-50.36M253.38,678.31l0,-18.89M204.6,681.46l0,4.72M253.38,681.46l0,4.72M146.36,629.53h1.57M146.36,623.23h1.57M259.68,659.43h-6.3M253.38,631.1l-11.97,25.67M259.68,631.1h-6.3M259.68,661h-6.3M253.38,629.52h6.3M253.38,631.1l0,-1.57M259.68,631.1l0,-7.87M222.28,675.69h-11.02l1.61,-4.44M222.28,675.69l-1.61,-4.44M231.59,676.29h18.36l0,-14.56h-18.36l0,14.56M140.07,538.24l0,55.08M204.6,629.53h48.79M146.36,629.53l0,59.8M176.27,623.23l0,6.3M147.94,629.53l25.67,11.97M147.94,623.23l0,6.3M177.84,623.23l0,6.3M146.36,629.53l0,-6.3M176.27,623.23h83.41M176.27,629.53h22.03M146.36,621.66h-6.3l-11.97,-25.67M146.36,593.33h-6.3M146.36,623.23h-6.3M146.36,591.75h-6.3M140.07,621.66l0,61.38M146.36,621.66l0,1.57M140.07,456.41l0,23.61M39.35,450.11h-28.33M146.36,508.34l0,84.99M140.07,508.34l0,23.61M146.36,508.34h-6.3l-11.97,-25.67M146.36,480.01h-6.3M146.36,509.92h-6.3M146.36,478.44h-6.3M42.49,412.34h-3.15M39.35,443.81h-28.33M39.35,440.67h-28.33M11.02,443.81l0,6.3M39.35,443.81l0,6.3M30.69,439.09h-11.02l1.61,-4.44M30.69,439.09l-1.61,-4.44M140.07,410.77h6.3l11.97,25.67M140.07,439.09h6.3M140.07,409.19h6.3M140.07,440.67h6.3M140.07,439.09l0,11.02M146.36,439.09l0,40.92M245.51,349.39l0,-6.3l25.67,-11.97M273.84,349.39l0,-6.3M243.94,349.39l0,-6.3M275.42,349.39l0,-6.3M245.51,343.09h-94.43M245.51,349.39h-99.15M745.99,317.91l0,-34.62M736.54,317.91l0,-25.18M1149.67,9.44H745.99M1159.11,0H736.54M1159.11,107.02l0,-14.16M1149.67,107.02l0,-14.16M1149.67,64.53h9.44M1159.11,92.86l11.97,-25.67M1149.67,92.86h9.44M1149.67,62.95h9.44M1159.11,94.43h-9.44M1149.67,64.53l0,-55.08M1159.11,64.53l0,-64.53M861.66,144.79h-11.02M861.66,176.27h-11.02M850.64,217.19h-14.95M850.64,226.63h-14.95M850.64,174.69L850.64,317.91M861.66,174.69L861.66,318.7M861.66,174.69h-11.02l-11.97,-25.67M861.66,146.36h-11.02M856.94,176.27h-6.3M856.94,144.79h-6.3M745.99,217.19L745.99,9.44M805.79,217.19l0,9.44M807.36,226.63H681.46M807.36,217.19h-61.38M835.69,217.19l0,9.44l-25.67,11.97M807.36,217.19l0,9.44M837.27,217.19l0,9.44M805.79,220.33l0,6.3M681.46,292.73l0,-9.44M736.54,217.19L736.54,0M736.54,217.19h-55.08M736.54,292.73h-55.08M681.46,226.63l0,-9.44M745.99,226.63l0,56.66M736.54,226.63l0,56.66M727.1,226.63l0,56.66M717.66,226.63l0,56.66M708.22,226.63l0,56.66M852.22,904.94L852.22,796.35M858.51,904.94L858.51,796.35M852.22,904.94h6.3M843.56,627.95l0,-58.23M749.13,631.1h62.95M749.13,627.95h62.95M813.66,558.7l0,11.02M841.99,569.72l-25.67,11.97M841.99,558.7l0,11.02M812.09,558.7l0,11.02M843.56,569.72l0,-11.02M813.66,569.72h-64.53M813.66,558.7h-64.53M840.42,627.95l0,3.15M812.09,631.1l25.67,11.97M812.09,627.95l0,3.15M841.99,627.95l0,3.15M810.51,631.1l0,-3.15M840.42,627.95h3.15M840.42,631.1h10.23M1916.12,742.84l0,39.34M1922.41,782.19L1922.41,542.97M1604.5,380.86h-1.57M1604.5,374.57h-1.57M1604.5,374.57l0,-47.21M1574.6,380.86l0,-6.3M1602.93,374.57l-25.67,-11.97M1602.93,380.86l0,-6.3M1573.02,380.86l0,-6.3M1604.5,374.57l0,6.3M1574.6,374.57h-33.05M1574.6,380.86h-33.05M420.21,417.06l0,-88.13M420.21,494.18l0,-70.82M1922.41,542.97H1761.88M1865.26,683.03h-18.39M1916.12,549.26h-99.15M1818.54,717.66l0,-34.62M1846.87,689.33l0,-6.3M1848.44,689.33l0,-6.3M1818.54,683.03h-1.57M1818.54,689.33h-1.57M2452.72,769.59l0,11.02M2481.05,769.59l0,11.02M2451.15,769.59l0,11.02M2482.63,769.59l0,11.02M2452.72,769.59h-44M2452.72,780.61h-66.04M2452.72,780.61l25.67,11.97M2452.72,694.05l0,-6.3M2481.05,694.05l0,-6.3M2452.72,687.76h-44M2452.72,694.05h-44M1329.08,851.43h31.48M1358.99,851.43l0,6.3M1360.56,851.43l0,6.3l33.17,15.47M1398.33,851.43h31.48M1398.33,857.73h31.48M1346.4,856.78h12.59M1346.4,855.84h12.59M1399.91,855.84h12.59M1399.91,856.78h12.59M1346.4,749.76h12.59M1346.4,748.82h12.59M1329.08,744.41h31.48M1329.08,750.71h31.48M1330.66,750.71l0,-6.3M1346.4,750.71l0,-6.3M1344.83,750.71l0,-6.3M1360.56,744.41l0,6.3M1358.99,744.41l0,6.3M1360.56,750.71l33.17,15.47M1414.07,750.71l0,-6.3M1412.49,750.71l0,-6.3M1398.33,744.41l0,6.3M1428.23,744.41l0,6.3M1399.91,744.41l0,6.3M1398.33,750.71h31.48M1399.91,749.76h12.59M1399.91,748.82h12.59M1398.33,744.41h31.48M1916.12,887.63l0,-28.33M1917.06,887.63l0,-28.33M1810.67,826.25h6.3M1810.67,794.78h6.3M1810.67,793.21h6.3M1810.67,827.83h6.3M1810.67,794.78L1810.67,618.51M1816.97,794.78L1816.97,683.03M1926.19,887.63l0,-28.33M1927.13,887.63l0,-28.33M1607.65,182.56l0,98.82M1604.5,182.56l0,98.82M1604.5,309.71h3.15l11.97,-25.67M1604.5,281.38h3.15M1604.5,279.81h3.15M1604.5,309.71l0,17.64M1607.65,309.71l0,17.64M1604.5,311.29h3.15M1517.37,887.07h-28.33M1517.37,871.34h-28.33M1517.37,859.34l14.21,-14.21M1489.04,847.61l30.8,-30.8M1531.58,845.14l-11.73,-28.33M1517.37,859.34l-28.33,-11.73M1543.57,845.14l0,-28.33M1559.31,845.14l0,-28.33M1575.05,845.14l0,-28.33M1590.78,845.14l0,-28.33M1606.52,845.14l0,-28.33M736.54,283.29h-55.08M151.09,343.09l0,-25.18M314.76,343.09l0,-25.18" />
<path id="cv_10" class="ZW" d="M2408.72,725.53A 28.328612 28.328612 0 0 0 2428.75 717.23M2408.72,588.61A 28.328612 28.328612 0 0 0 2428.75 580.31M2428.75,527.66A 28.328612 28.328612 0 0 0 2408.72 519.36M2428.75,390.73A 28.328612 28.328612 0 0 0 2408.72 382.44M1635.19,750.71A 28.328612 28.328612 0 0 0 1643.49 770.74M1671.39,875.04A 28.328612 28.328612 0 0 0 1691.42 866.74M1710.74,877.4A 5.558030 5.558030 0 1 0 1710.74 888.42M1710.73,888.42A 47.667975 47.667975 0 0 0 1718.88 886.8M1718.89,879.02A 47.667975 47.667975 0 0 0 1710.74 877.4M1665.09,796.35A 28.328612 28.328612 0 0 0 1645.06 804.65M1610.79,727.1A 28.328612 28.328612 0 0 0 1630.83 718.81M1635.19,697.2A 28.328612 28.328612 0 0 0 1643.49 717.23M1671.39,727.1A 28.328612 28.328612 0 0 0 1691.42 718.81M1892.51,720.02A 5.558030 5.558030 0 1 0 1892.51 731.04M1892.51,731.04A 47.667975 47.667975 0 0 0 1900.66 729.42M1900.66,721.63A 47.667975 47.667975 0 0 0 1892.51 720.02M1695.78,546.11A 28.328612 28.328612 0 0 0 1704.08 566.14M1753.58,566.15A 28.328612 28.328612 0 0 0 1761.88 546.12M1604.5,495.75A 28.328612 28.328612 0 0 0 1584.47 504.05M1620.54,343.27A 2.500266 2.500266 0 0 0 1620.87 340.18M1620.85,342.88A 9.478579 9.478579 0 0 0 1618.67 347.81M1618.67,335.22A 9.478579 9.478579 0 0 0 1620.87 340.18M1620.54,365.31A 2.500266 2.500266 0 0 0 1620.87 362.21M1620.85,364.91A 9.478579 9.478579 0 0 0 1618.67 369.85M1618.67,357.26A 9.478579 9.478579 0 0 0 1620.87 362.21M1705.65,423.78A 28.328612 28.328612 0 0 0 1697.36 443.81M1763.46,443.82A 28.328612 28.328612 0 0 0 1755.16 423.78M1706.8,386.37A 5.558030 5.558030 0 1 0 1706.8 397.39M1706.8,397.39A 47.667975 47.667975 0 0 0 1714.95 395.77M1714.95,387.99A 47.667975 47.667975 0 0 0 1706.8 386.37M1754.01,397.39A 5.558030 5.558030 0 1 0 1754.01 386.37M1745.86,395.77A 47.667975 47.667975 0 0 0 1754.01 397.39M1754.01,386.37A 47.667975 47.667975 0 0 0 1745.86 387.99M1706.8,358.04A 5.558030 5.558030 0 1 0 1706.8 369.06M1706.8,369.06A 47.667975 47.667975 0 0 0 1714.95 367.45M1714.95,359.66A 47.667975 47.667975 0 0 0 1706.8 358.04M1754.01,369.06A 5.558030 5.558030 0 1 0 1754.01 358.04M1745.86,367.44A 47.667975 47.667975 0 0 0 1754.01 369.06M1754.01,358.04A 47.667975 47.667975 0 0 0 1745.86 359.66M1769.68,401.25A 28.328612 28.328612 0 0 0 1779.19 402.9M1681.62,402.9A 28.328612 28.328612 0 0 0 1691.12 401.25M1672.11,355.68A 28.328612 28.328612 0 0 0 1681.62 357.33M1779.19,357.33A 28.328612 28.328612 0 0 0 1788.7 355.68M1801.23,295.88A 28.328612 28.328612 0 0 0 1781.2 304.17M1801.23,259.68A 28.328612 28.328612 0 0 0 1781.2 267.98M2210.42,317.91A 28.328612 28.328612 0 0 0 2202.12 297.88M1996.38,67.67A 37.771483 37.771483 0 0 0 1958.61 105.44M1857.89,129.05A 28.328612 28.328612 0 0 0 1837.85 137.35M1148.09,780.61A 28.328612 28.328612 0 0 0 1168.13 772.32M1887.79,443.82A 28.328612 28.328612 0 0 0 1879.49 423.78M1898.8,443.82A 91.281398 91.281398 0 0 0 1990.08 352.54M1898.8,446.96A 94.428706 94.428706 0 0 0 1993.23 352.54M1036.78,724.38A 28.328612 28.328612 0 0 0 1028.49 744.41M1084,724.38A 28.328612 28.328612 0 0 0 1075.7 744.41M1141.8,744.41A 28.328612 28.328612 0 0 0 1133.5 724.38M1003.73,772.31A 28.328612 28.328612 0 0 0 1023.76 780.61M1104.03,906.52A 28.328612 28.328612 0 0 0 1112.33 926.55M1066.26,670.44A 5.558030 5.558030 0 1 0 1077.27 670.44M1077.27,670.44A 47.667975 47.667975 0 0 0 1075.66 662.29M1067.87,662.29A 47.667975 47.667975 0 0 0 1066.26 670.44M869.53,819.96A 23.607177 23.607177 0 0 0 893.14 796.35M893.14,796.35A 23.607177 23.607177 0 0 0 916.74 819.96M888.41,458.96A 5.558030 5.558030 0 1 0 888.41 447.95M888.42,447.95A 47.667975 47.667975 0 0 0 880.26 449.56M880.26,457.35A 47.667975 47.667975 0 0 0 888.41 458.96M888.41,486.11A 5.558030 5.558030 0 1 0 888.41 475.09M880.26,484.5A 47.667975 47.667975 0 0 0 888.41 486.11M888.42,475.09A 47.667975 47.667975 0 0 0 880.26 476.71M916.98,470.18A 20.657321 20.657321 0 0 0 896.52 491.03M916.98,443.03A 20.657321 20.657321 0 0 0 896.52 463.88M947.59,452.11A 2.500266 2.500266 0 0 0 947.92 455.21M949.8,459.75A 9.478579 9.478579 0 0 0 947.61 454.82M947.59,452.11A 9.478579 9.478579 0 0 0 949.8 447.16M947.59,479.26A 2.500266 2.500266 0 0 0 947.92 482.36M949.8,486.9A 9.478579 9.478579 0 0 0 947.61 481.97M947.59,479.26A 9.478579 9.478579 0 0 0 949.8 474.31M981.27,321.84A 28.328612 28.328612 0 0 0 989.57 341.88M1035.92,341.88A 28.328612 28.328612 0 0 0 1044.22 321.85M1034.78,393.45A 5.558030 5.558030 0 1 0 1034.78 382.44M1034.78,382.44A 47.667975 47.667975 0 0 0 1026.63 384.05M1026.62,391.84A 47.667975 47.667975 0 0 0 1034.78 393.45M1034.78,424.93A 5.558030 5.558030 0 1 0 1034.78 413.91M1034.78,413.91A 47.667975 47.667975 0 0 0 1026.63 415.53M1026.62,423.31A 47.667975 47.667975 0 0 0 1034.78 424.93M1193.74,430.44A 28.328612 28.328612 0 0 0 1185.44 410.41M1416.07,354.54A 28.328612 28.328612 0 0 0 1407.77 374.57M1416.07,280.57A 28.328612 28.328612 0 0 0 1407.77 300.6M1256.69,410.77A 28.328612 28.328612 0 0 0 1276.72 402.47M1232.65,352.96A 28.328612 28.328612 0 0 0 1212.62 344.67M1209.48,140.07A 28.328612 28.328612 0 0 0 1189.44 148.37M623.23,472.14A 28.328612 28.328612 0 0 0 614.93 452.11M749.13,612.21A 28.328612 28.328612 0 0 0 769.16 603.92M488.31,611.07A 28.328612 28.328612 0 0 0 480.01 631.1M418.63,627.95A 28.328612 28.328612 0 0 0 410.34 607.92M325.78,607.49A 28.328612 28.328612 0 0 0 345.81 599.2M465.42,698.35A 28.328612 28.328612 0 0 0 473.72 678.32M625.95,698.35A 28.328612 28.328612 0 0 0 634.25 678.32M555.56,678.31A 28.328612 28.328612 0 0 0 563.85 698.34M387.59,655.13A 28.328612 28.328612 0 0 0 379.29 675.16M559.13,452.11A 28.328612 28.328612 0 0 0 550.83 472.14M489.88,514.21A 28.328612 28.328612 0 0 0 509.91 522.51M345.81,395.45A 28.328612 28.328612 0 0 0 325.78 387.16M325.78,530.38A 28.328612 28.328612 0 0 0 345.81 522.08M345.81,472.57A 28.328612 28.328612 0 0 0 325.78 464.27M814.45,328.93A 28.328612 28.328612 0 0 0 822.74 348.96M718.08,518.93A 28.328612 28.328612 0 0 0 738.12 527.23M275.42,720.8A 28.328612 28.328612 0 0 0 283.71 740.84M233.35,651.13A 28.328612 28.328612 0 0 0 253.38 659.43M222.28,663.11A 5.558030 5.558030 0 1 0 211.26 663.11M211.26,663.1A 47.667975 47.667975 0 0 0 212.88 671.25M220.66,671.26A 47.667975 47.667975 0 0 0 222.28 663.11M167.97,649.56A 28.328612 28.328612 0 0 0 176.27 629.53M140.07,593.33A 28.328612 28.328612 0 0 0 120.04 601.62M140.07,480.01A 28.328612 28.328612 0 0 0 120.04 488.31M30.69,426.51A 5.558030 5.558030 0 1 0 19.67 426.5M19.67,426.5A 47.667975 47.667975 0 0 0 21.29 434.65M29.07,434.66A 47.667975 47.667975 0 0 0 30.69 426.51M146.36,439.09A 28.328612 28.328612 0 0 0 166.39 430.8M273.84,343.09A 28.328612 28.328612 0 0 0 265.55 323.06M1179.14,72.82A 28.328612 28.328612 0 0 0 1159.11 64.53M850.65,146.36A 28.328612 28.328612 0 0 0 830.61 154.66M807.36,226.63A 28.328612 28.328612 0 0 0 815.66 246.66M813.66,569.72A 28.328612 28.328612 0 0 0 821.96 589.75M832.12,651.13A 28.328612 28.328612 0 0 0 840.42 631.1M1582.9,354.54A 28.328612 28.328612 0 0 0 1574.6 374.57M1818.54,717.66A 28.328612 28.328612 0 0 0 1846.87 689.33M2472.75,800.64A 28.328612 28.328612 0 0 0 2481.05 780.61M1390.03,877.76A 28.328612 28.328612 0 0 0 1398.33 857.73M1390.03,770.74A 28.328612 28.328612 0 0 0 1398.33 750.71M1627.68,289.68A 28.328612 28.328612 0 0 0 1607.65 281.38" />
<circle id="cv_11" class="ZW" cx="1683.19" cy="600.41" r="1.573654" />
<circle id="cv_12" class="ZW" cx="1620.24" cy="394.24" r="7.082153" />
<circle id="cv_13" class="ZW" cx="1620.24" cy="427.29" r="7.082153" />
<circle id="cv_14" class="ZW" cx="1840.57" cy="380.08" r="7.082153" />
<circle id="cv_15" class="ZW" cx="1840.57" cy="347.03" r="7.082153" />
<circle id="cv_16" class="ZW" cx="1119.77" cy="388.73" r="7.082153" />
<circle id="cv_17" class="ZW" cx="1119.77" cy="421.78" r="7.082153" />
<circle id="cv_18" class="ZW" cx="882.93" cy="422.82" r="7.082153" />
<circle id="cv_19" class="ZW" cx="882.93" cy="393.99" r="7.082153" />
<circle id="cv_20" class="ZW" cx="1306.26" cy="351.75" r="1.573654" />
<circle id="cv_21" class="ZW" cx="1238.66" cy="154.18" r="4.721435" />
<circle id="cv_22" class="ZW" cx="465.06" cy="619.3" r="1.573654" />
<circle id="cv_23" class="ZW" cx="370.63" cy="589.39" r="1.573654" />
</g>
<g style="font-family: simplex, , arial, helvetica, sans-serif" stroke="none" fill="#808080">
<g font-size="8.195063" stroke="none" fill="#808080">
<text id="cv_24" transform="scale(1.111111 1) translate(1153.28 242.75) " >UP</text>
</g>
<g font-size="3.642250" stroke="none" fill="#808080">
<text id="cv_25" transform="scale(1.111111 1) translate(1453.69 839.21) rotate(270) " >RELOCATED</text>
<text id="cv_26" transform="scale(1.111111 1) translate(1458.34 836.43) rotate(270) " >KEY BOX</text>
</g>
<g font-size="2.731688" stroke="none" fill="#808080">
<text id="cv_27" transform="scale(1.111111 1) translate(1348.19 893.45) " >DOOR</text>
<text id="cv_28" transform="scale(1.111111 1) translate(1345.2 896.99) " >CONTROL</text>
<text id="cv_29" transform="scale(1.111111 1) translate(1347.16 876.5) " >SENTRY</text>
<text id="cv_30" transform="scale(1.111111 1) translate(1346.46 880.04) " >MONITOR</text>
<text id="cv_31" transform="scale(1.111111 1) translate(1345.65 883.58) " >TERMINAL</text>
<text id="cv_32" transform="scale(1.111111 1) translate(1348.58 860.76) " >RADIO</text>
<text id="cv_33" transform="scale(1.111111 1) translate(1346.1 864.3) " >CONSOLE</text>
<text id="cv_34" transform="scale(1.111111 1) translate(1353.93 845.08) " >COMPUTER</text>
<text id="cv_35" transform="scale(1.111111 1) translate(1354.69 848.63) " >TERMINAL</text>
<text id="cv_36" transform="scale(1.111111 1) translate(1352.82 841.58) " >FIRE ALARM</text>
<text id="cv_37" transform="scale(1.111111 1) translate(1375.71 826.5) " >INMATE</text>
<text id="cv_38" transform="scale(1.111111 1) translate(1375.2 830.04) " >DURESS</text>
<text id="cv_39" transform="scale(1.111111 1) translate(1394.51 831.12) " >PA</text>
<text id="cv_40" transform="scale(1.111111 1) translate(1390.66 834.66) " >SYSTEM</text>
<text id="cv_41" transform="scale(1.111111 1) translate(1409.83 833.36) rotate(270) " >DOOR</text>
<text id="cv_42" transform="scale(1.111111 1) translate(1413.02 836.68) rotate(270) " >CONTROL</text>
<text id="cv_43" transform="scale(1.111111 1) translate(1423.96 833.87) rotate(270) " >RADIO</text>
<text id="cv_44" transform="scale(1.111111 1) translate(1427.15 836.62) rotate(270) " >CONSOLE</text>
<text id="cv_45" transform="scale(1.111111 1) translate(1438.26 834.94) rotate(270) " >FENCE</text>
<text id="cv_46" transform="scale(1.111111 1) translate(1441.44 837.02) rotate(270) " >MONITOR</text>
</g>
</g>
</g>
<g id="layer_ROOM_NUMBERS_NAMES" class="layer_ROOM_NUMBERS_NAMES"  cvjs:layerName="ROOM_NUMBERS_NAMES" cvjs:plottable="YES"
 cvjs:status="ON" visibility="visible">
<g style="font-family: simplex, , arial, helvetica, sans-serif" stroke="none" fill="#808080">
<g font-size="6.965803" stroke="none" fill="#808080">
<text id="cv_47" transform="scale(1.111111 1) translate(1387.32 866.04) " >CONTROL ROOM</text>
<text id="cv_48" transform="scale(1.111111 1) translate(1387.32 875.67) " >2.125</text>
<text id="cv_49" transform="scale(1.111111 1) translate(1219.57 803.73) " >VESTIBULE</text>
<text id="cv_50" transform="scale(1.111111 1) translate(1219.57 813.36) " >2.103</text>
<text id="cv_51" transform="scale(1.111111 1) translate(1534.14 495.41) " >CORRIDOR</text>
<text id="cv_52" transform="scale(1.111111 1) translate(1534.14 505.04) " >2.104</text>
<text id="cv_53" transform="scale(1.111111 1) translate(1267.68 523.61) " >LOBBY</text>
<text id="cv_54" transform="scale(1.111111 1) translate(1267.68 533.24) " >2.102</text>
<text id="cv_55" transform="scale(1.111111 1) translate(1925.37 173.83) " >OUTDOOR</text>
<text id="cv_56" transform="scale(1.111111 1) translate(1925.37 183.46) " >VISITING</text>
<text id="cv_57" transform="scale(1.111111 1) translate(2196.43 378.57) " >VISIT</text>
<text id="cv_58" transform="scale(1.111111 1) translate(2196.43 388.2) " >2.113</text>
<text id="cv_59" transform="scale(1.111111 1) translate(2196.64 468.1) " >VISIT</text>
<text id="cv_60" transform="scale(1.111111 1) translate(2196.64 477.73) " >2.114</text>
<text id="cv_61" transform="scale(1.111111 1) translate(2188.64 643.95) " >SEARCH</text>
<text id="cv_62" transform="scale(1.111111 1) translate(2188.64 653.58) " >2.115</text>
<text id="cv_63" transform="scale(1.111111 1) translate(2194.77 715.22) " >SEARCH</text>
<text id="cv_64" transform="scale(1.111111 1) translate(2194.77 724.85) " >2.116</text>
<text id="cv_65" transform="scale(1.111111 1) translate(1944.74 538.01) " >VISITING</text>
<text id="cv_66" transform="scale(1.111111 1) translate(1944.74 547.64) " >2.112</text>
<text id="cv_67" transform="scale(1.111111 1) translate(1666.96 822.13) " >2.117</text>
<text id="cv_68" transform="scale(1.111111 1) translate(1668 698.81) " >TOILET</text>
<text id="cv_69" transform="scale(1.111111 1) translate(1668 708.44) " >2.118</text>
<text id="cv_70" transform="scale(1.111111 1) translate(1647.86 611.78) " >COMM TECH. RM</text>
<text id="cv_71" transform="scale(1.111111 1) translate(1647.86 621.41) " >2.124</text>
<text id="cv_72" transform="scale(1.111111 1) translate(1511.48 877.1) " >TOILET</text>
<text id="cv_73" transform="scale(1.111111 1) translate(1511.48 886.73) " >2.126</text>
<text id="cv_74" transform="scale(1.111111 1) translate(1457.96 562.56) " >ELEV.</text>
<text id="cv_75" transform="scale(1.111111 1) translate(1457.96 572.19) " >MECH. RM.</text>
<text id="cv_76" transform="scale(1.111111 1) translate(1457.96 581.82) " >2.123</text>
<text id="cv_77" transform="scale(1.111111 1) translate(1705.73 395.76) " >CHILD AREA</text>
<text id="cv_78" transform="scale(1.111111 1) translate(1705.73 405.4) " >2.111</text>
<text id="cv_79" transform="scale(1.111111 1) translate(1478.74 364.45) " >MEN</text>
<text id="cv_80" transform="scale(1.111111 1) translate(1478.74 374.08) " >2.107</text>
<text id="cv_81" transform="scale(1.111111 1) translate(1612.83 366.38) " >WOMEN</text>
<text id="cv_82" transform="scale(1.111111 1) translate(1612.83 376.01) " >2.108</text>
<text id="cv_83" transform="scale(1.111111 1) translate(1701.28 264.28) " >MECH. RM.</text>
<text id="cv_84" transform="scale(1.111111 1) translate(1701.28 273.91) " >2.109</text>
<text id="cv_85" transform="scale(1.111111 1) translate(1530.45 245.92) " >OFFICE</text>
<text id="cv_86" transform="scale(1.111111 1) translate(1530.45 255.56) " >2.105</text>
<text id="cv_87" transform="scale(1.111111 1) translate(1626.29 306.96) " >STORAGE</text>
<text id="cv_88" transform="scale(1.111111 1) translate(1626.29 316.59) " >2.106</text>
<text id="cv_89" transform="scale(1.111111 1) translate(1254.45 338.65) " >VESTIBULE</text>
<text id="cv_90" transform="scale(1.111111 1) translate(1254.45 348.28) " >2.101</text>
<text id="cv_91" transform="scale(1.111111 1) translate(1099.31 302.83) " >JAN.CLO.</text>
<text id="cv_92" transform="scale(1.111111 1) translate(1099.31 312.47) " >2.138</text>
<text id="cv_93" transform="scale(1.111111 1) translate(1103.92 796.74) " >SIS</text>
<text id="cv_94" transform="scale(1.111111 1) translate(1103.92 806.37) " >2.129</text>
<text id="cv_95" transform="scale(1.111111 1) translate(959.69 794.51) " >SIS</text>
<text id="cv_96" transform="scale(1.111111 1) translate(959.69 804.15) " >2.127</text>
<text id="cv_97" transform="scale(1.111111 1) translate(864.56 780.04) " >SIS</text>
<text id="cv_98" transform="scale(1.111111 1) translate(864.56 789.67) " >2.131</text>
<text id="cv_99" transform="scale(1.111111 1) translate(1051.45 691.76) " >STORAGE</text>
<text id="cv_100" transform="scale(1.111111 1) translate(1051.45 701.39) " >2.129</text>
<text id="cv_101" transform="scale(1.111111 1) translate(895.19 693.32) " >STORAGE</text>
<text id="cv_102" transform="scale(1.111111 1) translate(895.19 702.95) " >2.130</text>
<text id="cv_103" transform="scale(1.111111 1) translate(957.65 683.19) " >STAFF TOILET</text>
<text id="cv_104" transform="scale(1.111111 1) translate(957.65 692.83) " >2.129A</text>
<text id="cv_105" transform="scale(1.111111 1) translate(907.83 590.22) " >MECHANICAL/</text>
<text id="cv_106" transform="scale(1.111111 1) translate(907.83 599.85) " >ELECTRICAL</text>
<text id="cv_107" transform="scale(1.111111 1) translate(907.83 609.48) " >2.132</text>
<text id="cv_108" transform="scale(1.111111 1) translate(808.23 413.43) " >MEN'S LOCKERS</text>
<text id="cv_109" transform="scale(1.111111 1) translate(808.23 423.06) " >2.133</text>
<text id="cv_110" transform="scale(1.111111 1) translate(941.1 417.89) " >WOMEN'S LOCKERS</text>
<text id="cv_111" transform="scale(1.111111 1) translate(941.1 427.52) " >2.134</text>
<text id="cv_112" transform="scale(1.111111 1) translate(897.55 207.34) " >STALL LOUNGE</text>
<text id="cv_113" transform="scale(1.111111 1) translate(897.55 216.97) " >2.135</text>
<text id="cv_114" transform="scale(1.111111 1) translate(1143.08 275.87) " >STAIR #1</text>
<text id="cv_115" transform="scale(1.111111 1) translate(1143.08 285.5) " >2.136</text>
<text id="cv_116" transform="scale(1.111111 1) translate(852.69 51.12) " >STAFF</text>
<text id="cv_117" transform="scale(1.111111 1) translate(852.69 60.76) " >GARDEN</text>
<text id="cv_118" transform="scale(1.111111 1) translate(703.03 463.71) " >MAILROOM</text>
<text id="cv_119" transform="scale(1.111111 1) translate(703.03 473.34) " >2.139</text>
<text id="cv_120" transform="scale(1.111111 1) translate(556.98 407.73) " >OFFICE</text>
<text id="cv_121" transform="scale(1.111111 1) translate(556.98 417.36) " >2.157</text>
<text id="cv_122" transform="scale(1.111111 1) translate(574.29 735.23) " >ADMIN #2</text>
<text id="cv_123" transform="scale(1.111111 1) translate(574.29 744.86) " >2.158</text>
<text id="cv_124" transform="scale(1.111111 1) translate(465.16 721.23) " >ADMIN #1</text>
<text id="cv_125" transform="scale(1.111111 1) translate(465.16 730.86) " >2.159</text>
<text id="cv_126" transform="scale(1.111111 1) translate(401.73 727.72) " >STOR.</text>
<text id="cv_127" transform="scale(1.111111 1) translate(401.73 737.36) " >2.160</text>
<text id="cv_128" transform="scale(1.111111 1) translate(322.35 724.41) " >HOLDING</text>
<text id="cv_129" transform="scale(1.111111 1) translate(322.35 734.04) " >2.147</text>
<text id="cv_130" transform="scale(1.111111 1) translate(521.69 580.01) " >RECORDS</text>
<text id="cv_131" transform="scale(1.111111 1) translate(521.69 589.65) " >2.153</text>
<text id="cv_132" transform="scale(1.111111 1) translate(435.1 399.17) " >FILES</text>
<text id="cv_133" transform="scale(1.111111 1) translate(435.1 408.8) " >2.156</text>
<text id="cv_134" transform="scale(1.111111 1) translate(399.13 526.74) " >STORAGE</text>
<text id="cv_135" transform="scale(1.111111 1) translate(399.13 536.37) " >2.155</text>
<text id="cv_136" transform="scale(1.111111 1) translate(409.78 606.21) " >JAN. CLOS.</text>
<text id="cv_137" transform="scale(1.111111 1) translate(409.78 615.84) " >2.154</text>
<text id="cv_138" transform="scale(1.111111 1) translate(354.24 586.73) " >TOILET</text>
<text id="cv_139" transform="scale(1.111111 1) translate(354.24 596.36) " >2.144</text>
<text id="cv_140" transform="scale(1.111111 1) translate(306.57 653.17) " >CORRIDOR</text>
<text id="cv_141" transform="scale(1.111111 1) translate(306.57 662.81) " >2.146</text>
<text id="cv_142" transform="scale(1.111111 1) translate(287.21 590.92) " >SHOWER</text>
<text id="cv_143" transform="scale(1.111111 1) translate(287.21 600.55) " >2.145</text>
<text id="cv_144" transform="scale(1.111111 1) translate(327.46 529.89) " >EXAM</text>
<text id="cv_145" transform="scale(1.111111 1) translate(327.46 539.52) " >2.143</text>
<text id="cv_146" transform="scale(1.111111 1) translate(328.09 464.04) " >EXAM</text>
<text id="cv_147" transform="scale(1.111111 1) translate(328.09 473.67) " >2.142</text>
<text id="cv_148" transform="scale(1.111111 1) translate(329.07 385.07) " >OFFICE</text>
<text id="cv_149" transform="scale(1.111111 1) translate(329.07 394.7) " >2.141</text>
<text id="cv_150" transform="scale(1.111111 1) translate(185.56 518.98) " >PROCESSING</text>
<text id="cv_151" transform="scale(1.111111 1) translate(185.56 528.61) " >2.140</text>
<text id="cv_152" transform="scale(1.111111 1) translate(63.74 406.46) " >HOLDING</text>
<text id="cv_153" transform="scale(1.111111 1) translate(63.74 416.09) " >2.152</text>
<text id="cv_154" transform="scale(1.111111 1) translate(43.8 492.25) " >PACKAGE</text>
<text id="cv_155" transform="scale(1.111111 1) translate(43.8 501.88) " >STORAGE</text>
<text id="cv_156" transform="scale(1.111111 1) translate(43.8 511.52) " >2.151</text>
<text id="cv_157" transform="scale(1.111111 1) translate(44.29 600.73) " >PERSONAL</text>
<text id="cv_158" transform="scale(1.111111 1) translate(44.29 610.36) " >PROPERTY</text>
<text id="cv_159" transform="scale(1.111111 1) translate(44.29 619.99) " >2.150</text>
<text id="cv_160" transform="scale(1.111111 1) translate(130.78 721.96) " >CLOTHING</text>
<text id="cv_161" transform="scale(1.111111 1) translate(130.78 731.59) " >2.149</text>
<text id="cv_162" transform="scale(1.111111 1) translate(187 665.36) " >TOILET</text>
<text id="cv_163" transform="scale(1.111111 1) translate(187 674.99) " >2.148</text>
</g>
</g>
</g>
<g id="layer_Security" class="layer_Security"  cvjs:layerName="Security" cvjs:plottable="YES"
 cvjs:status="ON" visibility="visible">
<g id="cvclr_164" stroke="#808080" fill="none">
<path id="cv_165" class=" ZW" d="M1440.81,823.8l0.03,37.77l3.15,-0l-0.03,-37.77l-3.15,0M1553.51,750.71h-83.33l0,3.15h83.33l-0,-3.15" />
</g>
</g>
<g id="layer_ETI_20__2D__20_REV01" class="layer_ETI_20__2D__20_REV01"  cvjs:layerName="ETI - REV01" cvjs:plottable="YES"
 cvjs:status="ON" visibility="visible">
<g id="cvclr_166" stroke="#F00" fill="none">
<path id="cv_167" class="nZW sLW_0_6" d="M997.56,488.25l0,8.51" />
<path id="cv_168" class="nZW sLW_0_6" d="M1001.72,490.37A 5.262774 5.262774 0 0 0 993.15 490.52" />
</g>
<g class="HEAT cvjs_block AcDbBlockReference" cvjs:handle='5F5FB6B0' id="cv_Block_HEAT_1" cvjs:block='HEAT_1' cvjs:attribId='cv_Attrib_1' cvjs:attribCount="2" >
<g id="cvclr_169" stroke="none" fill="#FFF" opacity="1.">
<path id="cv_170" d="M1947.24,312.47l-3.52,-6.1h-7.04l-3.52,6.1l3.52,6.1h7.04l3.52,-6.1 Z "/>
</g>
<g id="cvclr_171" stroke="#000" fill="none">
<path id="cv_172" class="ZW" d="M1947.24,312.47l-3.52,-6.1h-7.04l-3.52,6.1l3.52,6.1h7.04l3.52,-6.1" />
<path id="cv_173" class = "ZW cvjs_nodes" cvjs:node='NODE_1' cvjs:roomName='5F5FB6B0' cvjs:roomId='5F5FB6B0' cvjs:block='HEAT_1' cvjs:attribId='cv_Attrib_1' cvjs:attribCount="2" fill="transparent" d="M1933.15,306.37h14.084269v12.197335h-14.084269v-12.197335" />
</g>
<g id="cvclr_174" stroke="#F0F" fill="none">
<path id="cv_175" class="ZW" d="M1938.19,313.24l0.76,-0.76M1938.05,313.52l1.18,-1.18M1937.98,313.73l1.47,-1.47M1937.93,313.92l1.7,-1.7M1937.9,314.08l1.89,-1.89M1937.89,314.24l2.06,-2.06M1937.89,314.38l2.2,-2.2M1937.89,314.51l2.33,-2.33M1937.91,314.64l2.44,-2.44M1937.93,314.76l2.54,-2.54M1937.95,314.87l2.63,-2.63M1937.98,314.98l2.71,-2.71M1938.02,315.09l2.78,-2.78M1938.06,315.19l2.84,-2.84M1938.1,315.28l2.9,-2.9M1938.14,315.37l2.94,-2.94M1938.2,315.46l2.98,-2.98M1938.25,315.55l3.01,-3.01M1938.31,315.63l3.04,-3.04M1938.37,315.71l3.06,-3.06M1938.43,315.79l3.07,-3.07M1938.5,315.86l3.08,-3.08M1938.57,315.93l3.08,-3.08M1938.64,315.99l3.07,-3.07M1938.71,316.06l3.06,-3.06M1938.79,316.12l3.04,-3.04M1938.88,316.17l3.01,-3.01M1938.96,316.23l2.98,-2.98M1939.05,316.28l2.94,-2.94M1939.15,316.32l2.89,-2.89M1939.24,316.36l2.84,-2.84M1939.34,316.4l2.77,-2.77M1939.45,316.44l2.7,-2.7M1939.56,316.47l2.62,-2.62M1939.67,316.49l2.53,-2.53M1939.79,316.51l2.43,-2.43M1939.92,316.52l2.31,-2.31M1940.05,316.52l2.18,-2.18M1940.2,316.52l2.04,-2.04M1940.35,316.51l1.87,-1.87M1940.52,316.48l1.67,-1.67M1940.71,316.43l1.43,-1.43M1940.93,316.34l1.13,-1.13M1941.23,316.19l0.68,-0.68" />
</g>
<g id="cvclr_176" stroke="#CD2027" fill="none">
<circle id="cv_177" class="nZW sLW_0_6" cx="1940.06" cy="314.35" r="1.819013" />
</g>
<g id="cvclr_178" stroke="#991B1E" fill="none">
<path id="cv_179" class="nZW sLW_0_6" d="M1940.17,308.28l0,3.89" />
</g>
<g id="cvclr_180" stroke="#F00" fill="none">
<g style="font-family: simplex, , arial, helvetica, sans-serif" stroke="none" fill="#000">
<g font-size="6.373938" stroke="none" fill="#000">
<text id="cv_181" transform="scale(1.111111 1) translate(1729.44 324.67) "  cvjs:tag='FWK_DEVICE_ADDRESSES' cvjs:blockhandle='5F5FB6B0' >0010020376</text>
</g>
</g>
</g>
<cvjs:attributes  id="cv_Attrib_1" >
<cvjs:attribute  id="cv_Attrib_1_1" cvjs:tag="FWK_DEVICE_ADDRESSES" cvjs:value="0010020376" />
<cvjs:attribute  id="cv_Attrib_1_2" cvjs:tag="FWK_DEVICE_TYPE" cvjs:value="HEAT" />
</cvjs:attributes>
</g>
<g class="OLDRAI" id="cv_Block_OLDRAI_2">
<g id="cvclr_182" stroke="none" fill="#FFF" opacity="1.">
<path id="cv_183" d="M968.44,454.18h24.1v-14.12h-24.1v14.12 Z "/>
</g>
<g id="cvclr_184" stroke="#000" fill="none">
<path id="cv_185" class="ZW" d="M968.44,454.18h24.1l0,-14.12h-24.1l0,14.12" />
</g>
<g id="cvclr_186" stroke="#F0F" fill="none">
<g style="font-family: arial, helvetica, sans-serif" stroke="none" fill="#000">
<g font-size="9.295326" stroke="none" fill="#000">
<text id="cv_187" transform="scale(1.055556 1) translate(919.57 450.81) "  cvjs:tag='RAI' >PRN</text>
</g>
</g>
<g style="font-family: simplex, , arial, helvetica, sans-serif" stroke="none" fill="#000">
<g font-size="5.691016" stroke="none" fill="#000">
<text id="cv_188" transform="scale(1.111111 1) translate(866.83 464.69) "  cvjs:tag='FWK_DEVICE_ADDRESSES' >0000240003</text>
</g>
</g>
</g>
</g>
<g class="RGVMSDH" id="cv_Block_RGVMSDH_3">
<g id="cvclr_189" stroke="none" fill="#FFF" opacity="1.">
<path id="cv_190" d="M983.27,475.22h18.05v11.33h-18.05v-11.33 Z "/>
</g>
<g id="cvclr_191" stroke="#000" fill="none">
<path id="cv_192" class="ZW" d="M983.27,475.22h18.05l0,11.33h-18.05l0,-11.33" />
</g>
<g id="cvclr_193" stroke="#F0F" fill="none">
<g style="font-family: arial, helvetica, sans-serif" stroke="none" fill="#FF0">
<g font-size="8.923513" stroke="none" fill="#FF0">
<text id="cv_194" transform="scale(1.055556 1) translate(937.52 484.43) "  cvjs:tag='MSDH' >M</text>
</g>
</g>
</g>
<g id="cvclr_195" stroke="#FF0" fill="none">
<g style="font-family: simplex, , arial, helvetica, sans-serif" stroke="none" fill="#000">
<g font-size="8.195063" stroke="none" fill="#000">
<text id="cv_196" transform="scale(1.111111 1) translate(870.38 501.2) "  cvjs:tag='FWK_DEVICE_ADDRESSES' >0000280003</text>
</g>
</g>
</g>
</g>
<g class="LOGIC" id="cv_Block_LOGIC_4">
<g id="cvclr_197" stroke="#F0F" fill="none">
<path id="cv_198" class="nZW sLW_0_6" d="M1025.9,439.1l-6.76,16.25l6.92,13.79M1026.05,469.16l8.17,-13.68l-8.31,-16.38" />
</g>
<g id="cvclr_199" stroke="#000" fill="none">
</g>
</g>
<g class="LOGIC" id="cv_Block_LOGIC_5">
<g id="cvclr_200" stroke="#F0F" fill="none">
<path id="cv_201" class="nZW sLW_0_6" d="M1040.88,439.73l-6.76,16.25l6.92,13.79M1041.02,469.79l8.17,-13.68l-8.31,-16.38" />
</g>
<g id="cvclr_202" stroke="#000" fill="none">
</g>
</g>
<g class="LOGIC" id="cv_Block_LOGIC_6">
<g id="cvclr_203" stroke="#F0F" fill="none">
<path id="cv_204" class="nZW sLW_0_6" d="M1057.8,439.73l-6.76,16.25l6.92,13.79M1057.94,469.79l8.17,-13.68l-8.31,-16.38" />
</g>
<g id="cvclr_205" stroke="#000" fill="none">
</g>
</g>
<g class="ACFAIL" id="cv_Block_ACFAIL_7">
<g id="cvclr_206" stroke="none" fill="#FFF" opacity="1.">
<path id="cv_207" d="M487.3,621.04h21.33v-11.58h-21.33v11.58 Z "/>
</g>
<g id="cvclr_208" stroke="#000" fill="none">
<path id="cv_209" class="nZW sLW_0_6" d="M496.72,621.04l0,-0.02l0,-11.55M496.72,621.04l6.15,-6.15M487.82,618.53l7.61,-7.61M490.77,610.97l0.99,-1.41M490.77,615.61l4.24,-6.05M490.77,620.25l7.48,-10.69M493.41,621.12l8.09,-11.56M496.66,621.12l8.09,-11.56M499.91,621.12l5.91,-8.44M503.16,621.12l2.66,-3.8" />
</g>
<g id="cvclr_210" stroke="#0F0" fill="none">
<path id="cv_211" class=" nZW sLW_0_6" d="M490.77,609.56h15.05v11.56h-15.05v-11.56" />
<path id="cv_212" class="nZW sLW_0_6" d="M487.3,621.04h21.33l0,-11.58h-21.33l0,11.58" />
</g>
<g id="cvclr_213" stroke="#F0F" fill="none">
<g style="font-family: simplex, , arial, helvetica, sans-serif" stroke="none" fill="#000">
<g font-size="4.666633" stroke="none" fill="#000">
<text id="cv_214" transform="scale(1.111111 1) translate(434.66 629.66) "  cvjs:tag='FWK_DEVICE_ADDRESSES' >0010030008</text>
</g>
</g>
</g>
</g>
</g>
<g id="layer_ETI_20__2D__20_ADDRESSABLE_20_DEVICE_block" class="layer_ETI_20__2D__20_ADDRESSABLE_20_DEVICE_block"  cvjs:layerName="ETI - ADDRESSABLE DEVICE" cvjs:plottable="YES"
 cvjs:status="ON" visibility="visible">
<g class="SIGA_2D_PS cvjs_block AcDbBlockReference" cvjs:handle='58E282' id="cv_Block_SIGA_2D_PS_8" cvjs:block='SIGA_2D_PS_8' cvjs:attribId='cv_Attrib_2' cvjs:attribCount="3" >
<g id="cvclr_215" stroke="none" fill="#FFF" opacity="1.">
<path id="cv_216" d="M1851.58,589.66l-3.52,-6.1h-7.04l-3.52,6.1l3.52,6.1h7.04l3.52,-6.1 Z "/>
</g>
<g id="cvclr_217" stroke="#F00" fill="none">
<path id="cv_218" class="ZW" d="M1851.58,589.66l-3.52,-6.1h-7.04l-3.52,6.1l3.52,6.1h7.04l3.52,-6.1" />
<g style="font-family: simplex, , arial, helvetica, sans-serif" stroke="none" fill="#F00">
<g font-size="6.373938" stroke="none" fill="#F00">
<text id="cv_219" transform="scale(1.111111 1) translate(1648.65 601.54) "  cvjs:tag='FWK_DEVICE_ADDRESSES' >0010020381</text>
</g>
</g>
<path id="cv_220" class = "ZW cvjs_nodes" cvjs:node='NODE_2' cvjs:roomName='58E282' cvjs:roomId='58E282' cvjs:block='SIGA_2D_PS_8' cvjs:attribId='cv_Attrib_2' cvjs:attribCount="3" fill="transparent" d="M1837.49,583.56h14.084269v12.197335h-14.084269v-12.197335" />
</g>
<g id="cvclr_221" stroke="#000" fill="none">
<g style="font-family: simplex, , arial, helvetica, sans-serif" stroke="none" fill="#000">
<g font-size="8.195063" stroke="none" fill="#000">
<text id="cv_222" transform="scale(1.111111 1) translate(1658.1 593.32) "  cvjs:tag='SIGA-PS' >S</text>
</g>
</g>
</g>
<cvjs:attributes  id="cv_Attrib_2" >
<cvjs:attribute  id="cv_Attrib_2_1" cvjs:tag="SIGA-PS" cvjs:value="S" />
<cvjs:attribute  id="cv_Attrib_2_2" cvjs:tag="FWK_DEVICE_ADDRESSES" cvjs:value="0010020381" />
<cvjs:attribute  id="cv_Attrib_2_3" cvjs:tag="FWK_DEVICE_TYPE" cvjs:value="SMOKE" />
</cvjs:attributes>
</g>
<g class="FACP" id="cv_Block_FACP_9" cvjs:block='FACP_9' cvjs:attribId='cv_Attrib_3' cvjs:attribCount="1" >
<g id="cvclr_223" stroke="none" fill="#FFF" opacity="1.">
<path id="cv_224" d="M1708.16,827.98h29.33v10.86h-29.33v-10.86 Z "/>
</g>
<g id="cvclr_225" stroke="#F00" fill="none">
<path id="cv_226" class=" nZW sLW_0_6" d="M1708.16,827.98h29.33v10.86h-29.33v-10.86" />
<path id="cv_227" class="ZW" d="M1708.16,827.98h29.33l0,10.86h-29.33l0,-10.86" />
</g>
<g id="cvclr_228" stroke="#000" fill="none">
<g style="font-family: arial, helvetica, sans-serif" stroke="none" fill="#000">
<g font-size="8.550065" stroke="none" fill="#000">
<text id="cv_229" transform="scale(1.055556 1) translate(1620.38 836.81) "  cvjs:tag='FACP' >RCC7</text>
</g>
</g>
</g>
<cvjs:attributes  id="cv_Attrib_3" >
<cvjs:attribute  id="cv_Attrib_3_1" cvjs:tag="FACP" cvjs:value="RCC7" />
</cvjs:attributes>
</g>
<g class="SIGA_2D_PS cvjs_block AcDbBlockReference" cvjs:handle='5F5FB8BE' id="cv_Block_SIGA_2D_PS_10" cvjs:block='SIGA_2D_PS_10' cvjs:attribId='cv_Attrib_4' cvjs:attribCount="3" >
<g id="cvclr_230" stroke="none" fill="#FFF" opacity="1.">
<path id="cv_231" d="M1022.3,237.7l-3.52,-6.1h-7.04l-3.52,6.1l3.52,6.1h7.04l3.52,-6.1 Z "/>
</g>
<g id="cvclr_232" stroke="#F00" fill="none">
<path id="cv_233" class="ZW" d="M1022.3,237.7l-3.52,-6.1h-7.04l-3.52,6.1l3.52,6.1h7.04l3.52,-6.1" />
<g style="font-family: simplex, , arial, helvetica, sans-serif" stroke="none" fill="#F00">
<g font-size="6.373938" stroke="none" fill="#F00">
<text id="cv_234" transform="scale(1.111111 1) translate(902.3 249.57) "  cvjs:tag='FWK_DEVICE_ADDRESSES' >0010020132</text>
</g>
</g>
<path id="cv_235" class = "ZW cvjs_nodes" cvjs:node='NODE_3' cvjs:roomName='5F5FB8BE' cvjs:roomId='5F5FB8BE' cvjs:block='SIGA_2D_PS_10' cvjs:attribId='cv_Attrib_4' cvjs:attribCount="3" fill="transparent" d="M1008.22,231.6h14.084269v12.197335h-14.084269v-12.197335" />
</g>
<g id="cvclr_236" stroke="#000" fill="none">
<g style="font-family: simplex, , arial, helvetica, sans-serif" stroke="none" fill="#000">
<g font-size="8.195063" stroke="none" fill="#000">
<text id="cv_237" transform="scale(1.111111 1) translate(906.89 241.36) "  cvjs:tag='SIGA-PS' >AIM</text>
</g>
</g>
</g>
<cvjs:attributes  id="cv_Attrib_4" >
<cvjs:attribute  id="cv_Attrib_4_1" cvjs:tag="SIGA-PS" cvjs:value="AIM" />
<cvjs:attribute  id="cv_Attrib_4_2" cvjs:tag="FWK_DEVICE_ADDRESSES" cvjs:value="0010020132" />
<cvjs:attribute  id="cv_Attrib_4_3" cvjs:tag="FWK_DEVICE_TYPE" cvjs:value="MONITOR" />
</cvjs:attributes>
</g>
<g class="SIGA_2D_PS cvjs_block AcDbBlockReference" cvjs:handle='5F5FB90C' id="cv_Block_SIGA_2D_PS_11" cvjs:block='SIGA_2D_PS_11' cvjs:attribId='cv_Attrib_5' cvjs:attribCount="3" >
<g id="cvclr_238" stroke="none" fill="#FFF" opacity="1.">
<path id="cv_239" d="M647.48,370.82l-3.52,-6.1h-7.04l-3.52,6.1l3.52,6.1h7.04l3.52,-6.1 Z "/>
</g>
<g id="cvclr_240" stroke="#F00" fill="none">
<path id="cv_241" class="ZW" d="M647.48,370.82l-3.52,-6.1h-7.04l-3.52,6.1l3.52,6.1h7.04l3.52,-6.1" />
<g style="font-family: simplex, , arial, helvetica, sans-serif" stroke="none" fill="#F00">
<g font-size="6.373938" stroke="none" fill="#F00">
<text id="cv_242" transform="scale(1.111111 1) translate(564.96 382.69) "  cvjs:tag='FWK_DEVICE_ADDRESSES' >0010020379</text>
</g>
</g>
<path id="cv_243" class = "ZW cvjs_nodes" cvjs:node='NODE_4' cvjs:roomName='5F5FB90C' cvjs:roomId='5F5FB90C' cvjs:block='SIGA_2D_PS_11' cvjs:attribId='cv_Attrib_5' cvjs:attribCount="3" fill="transparent" d="M633.4,364.72h14.084269v12.197335h-14.084269v-12.197335" />
</g>
<g id="cvclr_244" stroke="#000" fill="none">
<g style="font-family: simplex, , arial, helvetica, sans-serif" stroke="none" fill="#000">
<g font-size="8.195063" stroke="none" fill="#000">
<text id="cv_245" transform="scale(1.111111 1) translate(574.41 374.48) "  cvjs:tag='SIGA-PS' >S</text>
</g>
</g>
</g>
<cvjs:attributes  id="cv_Attrib_5" >
<cvjs:attribute  id="cv_Attrib_5_1" cvjs:tag="SIGA-PS" cvjs:value="S" />
<cvjs:attribute  id="cv_Attrib_5_2" cvjs:tag="FWK_DEVICE_ADDRESSES" cvjs:value="0010020379" />
<cvjs:attribute  id="cv_Attrib_5_3" cvjs:tag="FWK_DEVICE_TYPE" cvjs:value="SMOKE" />
</cvjs:attributes>
</g>
</g>
</g></svg>