<?xml version="1.0" encoding="utf-8" ?>
<!-- Generated by AutoXChange 64-bit  V23.05.88 from Tailor Made Software -->
<!-- www.tailormade.com -->
<!DOCTYPE svg PUBLIC '-//W3C//DTD SVG 1.0//EN' 
'http://www.w3.org/TR/2001/REC-SVG-20010904/DTD/svg10.dtd'>
<svg id="tmsSVG94" contentScriptType="text/ecmascript" xmlns:xlink="http://www.w3.org/1999/xlink" zoomAndPan="magnify" 
contentStyleType="text/css" preserveAspectRatio="xMidYMid meet" 
width="2500" height="1582.25" viewBox="0 0 2500 1582.25" 
version="1.1" xmlns="http://www.w3.org/2000/svg" xmlns:cvjs="http://www.tailormade.com/" stroke-linecap="butt" stroke-linejoin="round" fill-rule="evenodd" >
<defs>
	<style id="cv_styles" type = "text/css">
	    <![CDATA[
	   #tmsSVG94 { background-color: white; opacity: 1.}
		:root {
		    --tmsMinLineWidth: 0.6;
		    --tmsMinDashLength: 0.6;
		    --tmsHLWidth: 0.6;
		    --tmsNumberOfLayouts: 1;
		    --tmsNumberOfSVGViewports: 0;
         --tmsMinFixedLineWidth: 0.6;
		    --tmsbPostFix: 0;
		}
		.tmsPoints {
		    fill: none;
		    stroke-width: var(--tmsMinLineWidth);
		    r: calc(var(--tmsMinLineWidth)/2.0);
		}
		.ZWhl {
		    stroke-width: var(--tmsHLWidth);
		}
		.ZW {
		    stroke-width: var(--tmsMinLineWidth);
		}
		.ZW6 {
		    stroke-width: calc(var(--tmsMinLineWidth)*6);
		}
		.ZW10 {
		    stroke-width: calc(var(--tmsMinLineWidth)*10);
		}
		.ZW20 {
		    stroke-width: calc(var(--tmsMinLineWidth)*20);
		}
		.ZW100 {
		    stroke-width: calc(var(--tmsMinLineWidth)*100);
		}
		.nZW {
		}
		.sLW_0_2{
		    stroke-width: calc(var(--tmsMinFixedLineWidth)*0.333333);
		}
		.sLW_0_6{
		    stroke-width: var(--tmsMinFixedLineWidth);
		}
		.hyperlinks:hover {
		    stroke-width: 3;
		}
		.hyperimage image{
			opacity: 0;
		}
		.hyperimage:hover image{
			opacity: 1;
		}
		.hyperimage:hover path{
			stroke-width: 3;
		}
		.hyperimage:visited{
			color: red;
		}
		.sLt_HIDDEN {
		    stroke-dasharray: calc(var(--tmsMinDashLength)*0.019344) calc(var(--tmsMinDashLength)*0.009672);
		}
		.sLt_PHANTOM2 {
		    stroke-dasharray: calc(var(--tmsMinDashLength)*0.04836) calc(var(--tmsMinDashLength)*0.009672) calc(var(--tmsMinDashLength)*0.009672) calc(var(--tmsMinDashLength)*0.009672) calc(var(--tmsMinDashLength)*0.009672) calc(var(--tmsMinDashLength)*0.009672);
		}
		.sLt_CENTER2 {
		    stroke-dasharray: calc(var(--tmsMinDashLength)*0.058032) calc(var(--tmsMinDashLength)*0.009672) calc(var(--tmsMinDashLength)*0.009672) calc(var(--tmsMinDashLength)*0.009672);
		}
		.sLt_CENTER {
		    stroke-dasharray: calc(var(--tmsMinDashLength)*0.096719) calc(var(--tmsMinDashLength)*0.019344) calc(var(--tmsMinDashLength)*0.019344) calc(var(--tmsMinDashLength)*0.019344);
		}
		.sLt_AMCONSTR {
		    stroke-dasharray: calc(var(--tmsMinDashLength)*773.677042) calc(var(--tmsMinDashLength)*4);
		}
		.sLt_HIDDEN2 {
		    stroke-dasharray: calc(var(--tmsMinDashLength)*0.009672) calc(var(--tmsMinDashLength)*0.004836);
		}
		.sLt_ACANSTGB {
		    stroke-dasharray: calc(var(--tmsMinDashLength)*0.012185) calc(var(--tmsMinDashLength)*0.003046) calc(var(--tmsMinDashLength)*0.003046) calc(var(--tmsMinDashLength)*0.003046) calc(var(--tmsMinDashLength)*0.003046) calc(var(--tmsMinDashLength)*0.003046);
		}
		.sLt_ACANSTGL {
		    stroke-dasharray: calc(var(--tmsMinDashLength)*0.006093) calc(var(--tmsMinDashLength)*0.003046);
		}
		.sLt_WIRE2 {
		    stroke-dasharray: calc(var(--tmsMinDashLength)*0.04836) calc(var(--tmsMinDashLength)*0.009672) calc(var(--tmsMinDashLength)*0.009672) calc(var(--tmsMinDashLength)*0.009672) calc(var(--tmsMinDashLength)*0.009672) calc(var(--tmsMinDashLength)*0.009672) calc(var(--tmsMinDashLength)*0.009672) calc(var(--tmsMinDashLength)*0.009672);
		}
		.sLt_DASHED {
		    stroke-dasharray: calc(var(--tmsMinDashLength)*0.038688) calc(var(--tmsMinDashLength)*0.019344);
		}
	]]></style>
	</defs>
<metadata>
<text id="cadviewer_worldUnits">
{ "globalOrigin": { "x": 57200.336811, "y" : 16043.236959}, 
						"units": "in",
						"measurementType": "English",
						"lengthType": "Architectural",
						"lengthPrecision": 6,
						"blockUnitsFormat": "Inches",
						"svgToWorldUnits": 13.462497,
						"worldToSVGUnits": 0.074280
}
</text>
<text id="cadviewer_drawingCoordinates">
{ "DWG": 
    { "lowerLeft": { "x": 57200.336811, "y" : 16043.236959}, 
      "upperRight": { "x": 90856.579770, "y" : 42092.664719} 
    },
 "SVG": 
    { "lowerLeft": { "x": 0.000000, "y" : 1704.123922}, 
      "upperRight": { "x": 2500.000000, "y" : 121.876078} 
    },
 "Drawing Height": 1826
}
</text>
<text id="cadviewer_vqBuilding"></text>
<text id="cadviewer_vqFloor"></text>
<text id="cadviewer_multiPages">
{ "multiPages": 1, 
                   "currentPage":1,
                   "pages" : [
                        { "fileName":"EdwardsBRAVAL6N_Building 2 Floor 2_Fixed_ia", "pageName":"ModelSpace"}
                   ]
}
</text>
</metadata>
<g id="cv_main_drawing">
<g id="layer_FLOOR_PLAN" class="layer_FLOOR_PLAN"  cvjs:layerName="FLOOR_PLAN" cvjs:plottable="YES"
 cvjs:status="ON" visibility="visible">
<g id="cvclr_1" stroke="#808080" fill="none">
<path id="cv_2" class="ZW" d="M0,542.89L0,1359.91H365.51M1452.63,182.75l0,67.19M2269.66,182.75H2065.4M2269.66,182.75L2269.66,513.33M1452.63,542.89h-13.44M2500,513.33h-47.59M1592.39,1548.04H1885.33M2441.66,1548.04l0,-83.31M2269.66,1548.04l0,-83.31M2441.66,1548.04h43M1279.28,561.7L1279.28,851.96M2484.66,1548.04l15.34,9.31M2489.93,1529.23l10.07,6.12M2460.48,1529.23h29.45M2460.48,1529.23L2460.48,1281.97M2250.84,1513.1L2250.84,1281.97M1611.2,1529.23H1748.27M1611.2,1529.23L1611.2,1281.97M1592.39,1548.04L1592.39,1359.91M1452.64,1548.04L1452.64,1077.72M1471.45,1341.1L1471.45,654.42M1471.45,1341.1h13.44M18.81,1341.1H346.7M18.81,561.7L18.81,752.52M1260.47,561.7L1260.47,806.27M365.51,1284.66l0,75.25M365.51,1284.66h86M346.7,1265.85l0,75.25M346.7,1265.85h86M451.51,1230.91h18.81M451.51,1230.91l0,53.75M432.7,1177.16l0,88.69M537.51,1230.91L537.51,1359.91M556.33,1212.1L556.33,1341.1M443.45,1212.1h26.88M537.51,1359.91H1279.28M556.33,1341.1H733.71M239.19,561.7l0,34.94M537.51,585.89h-69.88M545.58,596.64h-77.94M258.01,542.89H0M239.19,561.7H18.81M1471.45,201.57l0,48.38M2250.84,201.57L2250.84,575.14M2500,524.08h-47.59M2065.4,290.26l0,-2.69M1979.4,290.26L1979.4,182.75H1452.63M2065.4,290.26h-86M2084.22,295.63l0,-8.06M1960.59,301.01l0,-99.44H1471.45M2162.15,301.01H1960.59M2250.84,201.57H2084.22M2269.66,1464.73h53.75M2269.66,1464.73L2269.66,1271.22M2441.66,1453.98L2441.66,1281.97M2250.84,1281.97H1960.59M2441.66,1281.97l0,-10.75M2390.6,1453.98l0,10.75M2438.97,1453.98l0,10.75M2387.91,1453.98l0,10.75M2441.66,1464.73l0,-10.75M2269.66,1271.22H2146.03M2296.54,1464.73l0,-10.75M2412.09,1464.73l0,-10.75M2299.23,1464.73l0,-10.75M2414.78,1464.73l0,-10.75M2272.34,1464.73l0,-10.75M2500,1281.97h-39.52M2500,1271.22h-58.34M1960.59,1529.23L1960.59,1333.04M1955.21,1529.23L1955.21,1333.04M2234.72,1513.1h16.13M2234.72,1529.23l0,-16.13M1955.21,1284.66h5.38l20.44,43.84M1955.21,1333.04h5.38M1955.21,1335.72h5.38M1955.21,1284.66l0,-2.69M1960.59,1284.66l0,-2.69M1955.21,1281.97h-5.38M1748.27,1529.23L1748.27,1333.04M1753.64,1529.23L1753.64,1333.04M1600.45,1341.1l0,-69.88M2146.03,1271.22L2146.03,701.46M2135.28,1271.22L2135.28,1120.72M2135.28,1271.22H1949.84M1898.77,1271.22L1898.77,1120.72M1888.02,1271.22L1888.02,1120.72M1815.46,1271.22L1815.46,1120.72M1804.71,1271.22L1804.71,1120.72M1675.7,1271.22L1675.7,1120.72M1664.95,1271.22L1664.95,1109.97M2135.28,1120.72H1898.77M2135.28,1109.97H1664.95M1888.02,1120.72h-72.56M1804.71,1120.72H1675.7M1664.95,1271.22h-64.5M1804.71,1271.22h-2.69M1888.02,1271.22h-2.69M1756.33,1281.97l0,-10.75M1802.02,1281.97l0,-10.75M1753.64,1281.97l0,-10.75M1804.71,1271.22l0,10.75M1836.96,1281.97l0,-10.75M1885.33,1271.22l-43.84,-20.44M1885.33,1281.97l0,-10.75M1834.27,1281.97l0,-10.75M1888.02,1271.22l0,10.75M1760.86,1250.78l41.16,20.44M1756.33,1271.22h-80.63M1756.33,1281.97H1611.2M1836.96,1271.22h-21.5M1836.96,1281.97h-34.94M1901.46,1281.97l0,-10.75l43.84,-20.44M1949.84,1281.97l0,-10.75M1898.77,1281.97l0,-10.75M1952.52,1281.97l0,-10.75M1901.46,1271.22h-2.69M1901.46,1281.97h-16.13M1753.64,1529.23H1885.33M1753.64,1333.04h-5.38M1748.27,1284.66l-20.44,43.84M1753.64,1284.66h-5.38M1753.64,1335.72h-5.38M1748.27,1284.66l0,-2.69M1753.64,1284.66l0,-2.69M1933.71,1529.23l0,18.81l-43.84,20.44M1885.33,1529.23l0,18.81M1936.4,1529.23l0,18.81M1882.65,1529.23l0,18.81M1933.71,1548.04H2269.66M1933.71,1529.23h21.5M1960.59,1529.23H2234.72M1820.83,1123.41h18.81l-2.76,7.58M1820.83,1123.41l2.76,7.58M1885.33,1123.4h-31.32M1885.33,1149.42l0,-26.02M1854.01,1149.42l0,-26.02M1885.33,1149.42h-31.32M1468.76,1548.04L1468.76,1359.91M1452.64,1548.04h16.13M1592.39,1531.92H1468.76M1592.39,1518.48H1468.76M1592.39,1505.04H1468.76M1592.39,1491.6H1468.76M1484.89,1400.23l0,-59.13M1565.51,1400.23l0,-59.13M1452.64,1359.91h32.25M1565.51,1359.91h26.88M1565.51,1341.1h34.94M1643.45,843.9h-2.69M1648.83,849.27H1471.45M1487.57,843.9L1487.57,654.42M1492.95,797.54l0,-46.36M1487.57,843.9h-16.12M1982.09,549.61H1783.2M1987.46,544.23H1783.2M1982.09,740.43L1982.09,549.61M1987.46,735.05L1987.46,544.23M2135.28,745.8h-96.75M1982.09,740.43H1742.89M1492.95,740.43l0,-86M1742.89,740.43l0,-48.38M1716.02,740.43l0,-48.38M1721.39,740.43L1721.39,638.3M1737.52,740.43L1737.52,638.3M1737.52,740.43h-16.13M1716.02,740.43h-96.75M1648.83,849.27L1648.83,745.8M1643.45,843.9l0,-98.1M1640.76,843.9l0,-98.1M1635.39,797.54l0,-46.36M1643.45,745.8h-2.69M1635.39,843.9H1492.95M1742.89,632.92h-10.75M1737.52,638.3h-16.13M1635.39,638.3l0,-5.38M1742.89,632.92h80.63M1742.89,638.3h80.63l0,-5.38M1716.02,638.3h-80.63M1823.52,686.67h-80.63M1823.52,692.05h-80.63M1716.02,692.05h-80.63M1716.02,686.67h-80.63M1716.02,686.67l0,-48.38M1742.89,686.67l0,-48.38M1635.39,686.67l0,5.38M1823.52,686.67l0,5.38M1667.64,740.43l0,-48.38M1667.64,686.67l0,-48.38l48.38,48.38M1716.02,638.3l0,48.38M1667.64,692.05l48.38,48.38M1667.64,740.43l48.38,-48.38M1716.02,638.3l-48.38,48.38M1487.58,632.92l0,-64.5M1441.88,561.7h-2.69M1635.39,751.18h-16.13l0,-10.75M1570.89,751.18l0,-10.75M1570.89,751.18h-77.94M1570.89,740.43h-77.94M1565.92,797.54h-72.97M1565.92,843.9l0,-5.38M1492.95,843.9l0,-46.36M1495.64,783.76l0,-18.81l7.58,2.76M1495.64,783.76l7.58,-2.76M1495.64,811.31l0,18.81l7.58,-2.76M1495.64,811.31l7.58,2.76M1565.92,838.52h-34.94M1565.92,792.16h-34.94M1565.92,756.55l0,-5.38M1565.92,802.91l0,-10.75M1635.39,843.9l0,-46.36M1621.95,785.11l0,-21.5h10.75l0,21.5h-10.75M1621.95,831.47l0,-21.5h10.75l0,21.5h-10.75M1552.08,654.42h-59.13M1525.2,740.43l0,-86M1552.08,654.42l0,-21.5M1546.7,649.05l0,-16.13M1530.57,649.05l0,-16.13M1514.45,649.05l0,-16.13M1498.32,649.05l0,-16.13M1546.7,649.05h-48.38M1552.08,632.92h-80.63M1487.57,654.42h-16.12M1487.58,616.8h-16.13M1487.58,600.67h-16.13M1487.58,584.55h-16.13M1509.07,568.42h-37.63M1471.45,632.92l0,-64.5M1726.77,632.92l0,-83.31M1732.14,632.92l0,-83.31M1726.77,632.92h-91.38M1726.77,549.61h-2.69M1724.08,544.23l0,5.38l-43.84,20.44M1675.7,544.23l0,43M1726.77,544.23l0,5.38M1673.02,544.23l0,5.38M1734.83,544.23l0,5.38l43.84,20.44M1783.2,544.23l0,5.38M1732.14,544.23l0,5.38M1785.89,544.23l0,5.38M1675.7,549.61H1509.07M1675.7,544.23H1471.45M1734.83,544.23h-10.75M1734.83,549.61h-2.69M1675.7,587.23h-5.38M1670.33,549.61l0,37.63M1654.2,549.61l0,16.13M1670.33,565.73H1509.07M1638.08,549.61l0,16.13M1621.95,549.61l0,16.13M1605.83,549.61l0,16.13M1589.7,549.61l0,16.13M1573.58,549.61l0,16.13M1557.45,549.61l0,16.13M1541.32,549.61l0,16.13M1525.2,549.61l0,16.13M1509.07,549.61l0,18.81M1788.58,549.61l0,37.63M1783.2,544.23l0,43h5.38M1804.71,549.61l0,16.13M1820.83,549.61l0,16.13M1982.09,565.73H1788.58M1836.96,549.61l0,16.13M1853.08,549.61l0,16.13M1869.21,549.61l0,16.13M1885.33,549.61l0,16.13M1982.09,549.61H1788.58M1901.46,549.61l0,16.13M1917.58,549.61l0,16.13M1933.71,549.61l0,16.13M1949.83,549.61l0,16.13M1965.96,549.61l0,16.13M1745.58,671.89l0,-18.81l7.58,2.76M1745.58,671.89l7.58,-2.76M1745.58,725.64l0,-18.81l7.58,2.76M1745.58,725.64l7.58,-2.76M1933.71,692.05l48.38,48.38M1933.71,740.43l48.38,-48.38M1933.71,740.43L1933.71,632.92M1933.71,692.05h48.38M1928.34,740.43L1928.34,638.3M1896.08,638.3l0,-5.38M1896.08,638.3h32.25M1896.08,632.92h37.63M1898.77,740.43L1898.77,638.3M2140.65,735.05H2038.53M2135.28,1109.97L2135.28,745.8M1990.15,745.8l0,-10.75l43.84,-20.44M2038.53,745.8l0,-10.75M1987.46,745.8l0,-10.75M2041.21,745.8l0,-10.75M1990.15,735.05h-2.69M1990.15,745.8H1648.83M1984.77,850.62L1984.77,745.8M1987.46,850.62L1987.46,745.8M2043.9,850.62L2043.9,745.8M2041.21,850.62L2041.21,745.8M2043.9,810.3h-59.13M2043.9,823.74h-59.13M2043.9,837.18h-59.13M2043.9,850.62h-59.13M2260.25,740.43h-24.19M2236.06,764.61l0,-24.19M2260.25,764.61h-24.19M2260.25,764.61l0,-24.19M2260.25,1127.44h-24.19M2236.06,1151.62l0,-24.19M2260.25,1151.62h-24.19M2260.25,1151.62l0,-24.19M2500,650.39h-47.59M2500,639.64h-47.59M2269.66,524.08L2269.66,639.64M2404.03,650.39l0,-10.75M2452.41,639.64l-43.84,-20.44M2452.41,650.39l0,-10.75M2401.35,650.39l0,-10.75M2455.1,639.64l0,10.75M2404.03,524.08l0,-10.75M2452.41,513.33l-43.84,-20.44M2452.41,524.08l0,-10.75M2401.35,524.08l0,-10.75M2455.1,513.33l0,10.75M2404.03,650.39H2065.4M2272.34,639.64h-2.69M2404.03,524.08H2269.66M2404.03,513.33H2269.66M2477.94,650.39l0,-10.75M2480.63,650.39l0,-10.75M2477.94,524.08l0,-10.75M2480.63,524.08l0,-10.75M2272.34,513.33l0,10.75M2272.34,639.64l0,10.75M2269.66,639.64l0,10.75M2404.03,639.64H2272.34M2303.92,650.39l0,-10.75M2306.61,650.39l0,-10.75M2336.85,650.39l0,-10.75M2339.53,650.39l0,-10.75M2369.77,650.39l0,-10.75M2372.46,650.39l0,-10.75M2303.92,524.08l0,-10.75M2306.61,524.08l0,-10.75M2336.85,524.08l0,-10.75M2339.53,524.08l0,-10.75M2369.77,524.08l0,-10.75M2372.46,524.08l0,-10.75" />
<path id="cv_3" class="sLt_DASHED ZW" d="M2260.25,764.61H2500M2500,1127.44H2260.25L2260.25,764.61" />
<path id="cv_4" class="ZW" d="M2311.31,1178.26L2311.31,985.31M2314,1178.26L2314,984.18M2391.94,1178.26L2391.94,951.57M2389.25,1178.26L2389.25,952.7M2403.56,946.71l-51.88,21.71M2389.25,1164.82h-75.25M2389.25,1151.38h-75.25M2389.25,1137.95h-75.25M2389.25,1124.51h-75.25M2389.25,1111.07h-75.25M2389.25,1097.63h-75.25M2389.25,1084.19h-75.25M2389.25,1019.69h-75.25M2389.25,1006.25h-75.25M2389.25,992.82h-75.25M2389.25,979.38h-63.77M2389.25,965.94h-31.65M2337.73,968.93l8.26,6.58l-1.71,-8.91l7.4,5.81l0,-9.29M2342.11,972.42l-43.96,18.39M2065.4,650.39l0,-13.44M2250.84,645.02H2070.78M2140.65,653.08h5.38l20.44,43.84M2140.65,701.46h5.38M2135.28,650.39h10.75M2140.65,704.14h5.38M2140.65,735.05l0,-33.59M2140.65,653.08l0,-2.69M2146.03,653.08l0,-2.69M2070.78,645.02l0,-8.06M2162.15,548.26h-91.38M2162.15,542.89h-96.75M2250.84,580.52h-88.69M2250.84,575.14h-13.44M2237.41,225.76L2237.41,575.14M2232.03,231.13L2232.03,575.14M2167.53,295.63L2167.53,575.14M2162.15,301.01L2162.15,542.89M2232.03,575.14h-64.5M2162.15,548.26l0,32.25M2065.4,588.58h5.38M2070.78,636.95l20.44,-43.84M2065.4,636.95h5.38M2065.4,585.89h5.38M2070.78,639.64h-5.38M2065.4,588.58l0,-45.69M2070.78,588.58l0,-40.31M2250.84,580.52l0,64.5M2228.79,602.57l-14.23,14.23M2232.59,602.57l14.23,14.23M2249.5,581.86h-37.63l0,37.63h37.63l0,-37.63M2246.81,584.55l-14.23,14.23M2214.56,584.55l14.23,14.23M2214.56,584.55l0,32.25M2246.81,584.55h-32.25M2246.81,616.8l0,-32.25M2214.56,616.8h32.25M2250.84,620.83l0,-40.31M2210.53,620.83h40.31M2210.53,580.52l0,40.31M2250.84,580.52h-40.31M2167.53,295.63h-83.31M2232.03,231.13H2084.22M2237.41,225.76H2084.22M2084.22,239.19h-18.81M2065.4,287.57l-20.44,-43.84M2084.22,287.57h-18.81M2084.22,236.5h-18.81M2065.4,290.26h18.81M2065.4,239.19l0,-56.44M2084.22,239.19l0,-8.06M2084.22,225.76l0,-24.19M2148.72,295.63l0,-64.5M2162.15,295.63l0,-64.5M2167.53,301.01h64.5M2167.53,314.45h64.5M2167.53,327.88h64.5M2167.53,341.32h64.5M2167.53,354.76h64.5M2199.78,263.29h-84.55M2199.78,399.3L2199.78,263.29M2210.18,384.07l-10.4,15.23M2189.38,384.07l10.4,15.23M239.19,919.15H18.81M239.19,908.4H18.81M239.19,1166.41H18.81M249.94,1177.16H18.81L18.81,1341.1M239.19,779.39H18.81M239.19,768.64H72.56M18.81,779.39L18.81,908.4M18.81,919.15L18.81,1166.41M67.19,704.14l0,48.38M72.56,704.14l0,64.5M239.19,596.64L239.19,701.46M249.94,596.64L249.94,701.46M1440.54,972.9h-2.69M1460.7,954.09h-22.84M1279.28,972.9l0,21.5M1217.47,561.7L1217.47,806.27M1212.1,561.7L1212.1,806.27M1260.47,561.7h-43M1212.1,561.7H1005.15M1260.47,811.65h-69.88M1260.47,806.27h-43M1212.1,806.27H1064.28M1260.47,811.65l0,40.31M1005.15,561.7L1005.15,806.27M999.78,561.7L999.78,806.27h-10.75M1015.9,811.65l0,-5.38l43.84,-20.44M1064.28,811.65l0,-5.38M1013.21,811.65l0,-5.38M1066.97,811.65l0,-5.38M1015.9,811.65h-26.88M1015.9,806.27h-10.75M999.78,561.7H728.33M728.33,975.59L728.33,811.65M717.58,975.59L717.58,854.65M717.58,561.7H556.33M556.33,1212.1l0,-48.38M545.58,1212.1l0,-59.13M728.33,806.27L728.33,561.7M717.58,722.96H556.33M717.58,712.2H556.33M556.33,1163.72h91.38M545.58,1152.97H647.71M763.27,1072.34h-16.13M870.77,1083.09h-2.69M876.15,1083.09h-8.06M556.33,1072.34l0,-34.94M545.58,1083.09l0,-45.69M733.71,1163.72L733.71,1341.1M744.46,1158.34L744.46,1341.1M819.71,1158.34L819.71,1341.1M825.09,1158.34L825.09,1341.1M744.46,1158.34h16.13M825.09,1158.34H948.71M744.46,1341.1h75.25M825.09,1341.1H1013.22L1013.22,1158.34M1018.59,1341.1L1018.59,1158.34M1018.59,1341.1H1260.47M1018.59,1158.34h16.13M1109.97,1220.16H1260.47M1115.34,1214.78H1260.47M1109.97,1220.16l0,-61.81M1115.34,1214.78l0,-61.81M1260.47,1220.16L1260.47,1341.1M1190.6,811.65L1190.6,1048.15M1185.22,811.65L1185.22,1048.15M1190.6,1144.91h69.88M1190.6,1130.12h69.88M1190.6,1115.34h69.88M1190.6,1100.56h69.88M1190.6,1085.78h69.88M1190.6,1071h69.88M1190.6,1056.21h69.88M1260.47,1048.15h18.81M1260.47,994.4h18.81M1260.47,1045.46L1260.47,1214.78M1279.28,1048.15L1279.28,1359.91M1260.47,997.09h18.81l20.44,43.84M1260.47,1045.46h18.81M1268.53,994.4h10.75M1268.53,1048.15h10.75M1185.22,1048.15h5.38M1193.28,1147.59l0,-99.44M1195.97,1150.28L1195.97,1048.15M1182.53,1147.59l0,-99.44M1179.85,1150.28L1179.85,1048.15h16.13M1179.85,1150.28h16.13M1190.6,1144.91l0,-88.69M1182.53,1147.59h10.75M870.77,811.65l0,32.25M876.15,1083.09L876.15,892.27M870.77,1077.72h-2.69M819.71,1083.09l0,-5.38M868.09,1077.72l-43.84,-20.44M868.09,1083.09l0,-5.38M817.02,1083.09l0,-5.38M763.27,986.34h-16.13M774.02,1077.72l0,-56.44M796.08,1055.66l14.23,-14.23M792.28,1055.66l-14.23,-14.23M775.36,1076.37h37.63l0,-37.63h-37.63l0,37.63M778.05,1073.68l14.23,-14.23M810.3,1073.68l-14.23,-14.23M810.3,1073.68l0,-32.25M778.05,1073.68h32.25M778.05,1041.43l0,32.25M810.3,1041.43h-32.25M774.02,1037.4l0,40.31M814.34,1037.4h-40.31M814.34,1077.72l0,-40.31M774.02,1077.72h45.69M763.27,1072.34l0,-86M747.15,1072.34l0,-86M736.39,1072.34l0,-86M774.02,975.59h-45.69M717.58,854.65H556.33M717.58,843.9H556.33M774.02,1021.28h96.75M774.02,1015.9h96.75M774.02,1015.9l0,-40.31M870.77,1021.28l0,56.44M819.71,1083.09H714.89M736.39,1072.34h-21.5M736.39,986.34h-72.56M717.58,975.59H556.33M653.08,1083.09l0,-21.5M663.83,1072.34l0,-86M634.82,1004.6l14.23,-14.23M631.02,1004.6l-14.23,-14.23M614.11,1025.31h37.63l0,-37.63h-37.63l0,37.63M616.8,1022.62l14.23,-14.23M649.05,1022.62l-14.23,-14.23M649.05,1022.62l0,-32.25M616.8,1022.62h32.25M616.8,990.37l0,32.25M649.05,990.37h-32.25M612.77,986.34l0,40.31M653.08,986.34h-40.31M653.08,1026.65l0,-40.31h-96.75M653.08,1026.65h-40.31M653.08,1045.47h-29.56M653.08,1050.84h-29.56M653.08,1061.59h-29.56M612.77,1026.65l0,45.69M623.52,1045.47l0,5.38M612.77,1072.34h-56.44M623.52,1083.09h-77.94M653.08,1026.65l0,-40.31M653.08,1050.84l0,-5.38M623.52,1061.59l0,21.5M666.52,1083.09l0,-10.75l43.84,-20.44M714.89,1083.09l0,-10.75M663.83,1083.09l0,-10.75M717.58,1083.09l0,-10.75M666.52,1072.34h-2.69M666.52,1083.09h-13.44M709.64,1033.27h24.02l0,-31.11h-24.02l0,31.11M556.33,975.59l0,-69.88M545.58,989.03h10.75l20.44,43.84M545.58,1037.4h10.75M545.58,986.34h10.75M545.58,1040.09h10.75M545.58,989.03l0,-83.31M556.33,989.03l0,-2.69M808.96,1152.97l0,5.38M760.58,1158.34l43.84,20.44M760.58,1152.97l0,5.38M811.65,1152.97l0,5.38M757.9,1158.34l0,-5.38M808.96,1152.97H948.71M808.96,1158.34h10.75M1083.09,1152.97l0,5.38M1034.72,1158.34l43.84,20.44M1034.72,1152.97l0,5.38M1085.78,1152.97l0,5.38M1032.03,1158.34l0,-5.38M1083.09,1158.34h26.88M1083.09,1152.97h32.25M948.71,1152.97l0,5.38M997.09,1158.34l-43.84,20.44M997.09,1152.97l0,5.38M946.03,1152.97l0,5.38M999.78,1158.34l0,-5.38M997.09,1152.97h37.63M997.09,1158.34h16.13M647.71,1163.72l0,-10.75M696.08,1152.97l-43.84,-20.44M696.08,1163.72l0,-10.75M645.02,1163.72l0,-10.75M698.77,1152.97l0,10.75M696.08,1152.97h64.5M696.08,1163.72h37.63M870.77,811.65H728.33M989.03,811.65l0,-5.38l-43.84,-20.44M940.65,811.65l0,-5.38M991.72,811.65l0,-5.38M937.96,811.65l0,-5.38M940.65,806.27H728.33M940.65,811.65h-64.5M876.15,892.27h-5.38M870.77,843.9l-20.44,43.84M876.15,843.9h-5.38M876.15,894.96h-5.38M870.77,841.21h5.38M876.15,843.9l0,-32.25M870.77,892.27L870.77,1015.9M1185.22,811.65H1064.28M556.33,843.9l0,-2.69M556.33,712.2l0,-2.69M545.58,661.14h10.75M556.33,709.52l20.44,-43.84M545.58,709.52h10.75M545.58,658.45h10.75M556.33,712.21h-10.75M545.58,661.14l0,-64.5M556.33,661.14l0,-99.44M545.58,905.71h10.75M556.33,857.34l20.44,43.84M545.58,857.34h10.75M545.58,908.4h10.75M556.33,854.65h-10.75M545.58,725.64l0,-16.13M556.33,857.34l0,-2.69M545.58,792.83h10.75M556.33,841.21l20.44,-43.84M545.58,841.21h10.75M545.58,790.14h10.75M556.33,843.9h-10.75M556.33,841.21l0,2.69M545.58,792.83l0,-69.88M556.33,792.83l0,-69.88M545.58,857.34l0,-16.13M556.33,857.34l0,-2.69M1441.88,561.7l0,71.22M1460.7,954.09L1460.7,632.92h-18.81M1439.19,542.89l0,18.81l-43.84,20.44M1390.82,542.89l0,18.81M1441.88,542.89l0,18.81M1388.13,542.89l0,18.81M1390.82,561.7H1279.28M1390.82,542.89H537.51M1279.28,900.34h-18.81M1260.47,851.96l-20.44,43.84M1279.28,851.96h-18.81M1279.28,903.02h-18.81M1260.47,849.27h18.81M1260.47,900.34l0,96.75M1279.28,900.34l0,53.75M518.7,1212.1l0,18.81l-43.84,20.44M470.33,1212.1l0,18.81M521.39,1212.1l0,18.81M467.64,1212.1l0,18.81M518.7,1230.91h18.81M518.7,1212.1h26.87M338.63,1075.03L338.63,1177.16M349.39,1075.03l0,83.31M338.63,1177.16h94.07M349.39,1171.78h83.31M349.39,1163.72h83.31M349.39,1158.34h83.31M443.45,1212.1l0,-86M432.7,1158.34l0,-32.25M349.39,1163.72l0,8.06M432.7,1163.72l0,8.06M249.94,1075.03h2.69M249.94,1064.28h2.69M443.45,1126.09h-10.75M432.7,1077.72l-20.44,43.84M443.45,1077.72h-10.75M443.45,1128.78h-10.75M432.7,1075.03h10.75M432.7,1077.72l0,-2.69M443.45,1077.72l0,-13.44M379.58,1153.87h-18.81l2.76,-7.58M379.58,1153.87l-2.76,-7.58M395.48,1154.89h31.35l0,-24.87h-31.35l0,24.87M239.19,919.15l0,94.07M349.39,1075.03h83.31M249.94,1075.03L249.94,1177.16M301.01,1064.28l0,10.75M252.63,1075.03l43.84,20.44M252.63,1064.28l0,10.75M303.7,1064.28l0,10.75M249.94,1075.03l0,-10.75M301.01,1064.28H443.45M301.01,1075.03h37.63M249.94,1061.59h-10.75l-20.44,-43.84M249.94,1013.21h-10.75M249.94,1064.28h-10.75M249.94,1010.53h-10.75M239.19,1061.59L239.19,1166.41M249.94,1061.59l0,2.69M239.19,779.39l0,40.31M67.19,768.64h-48.38M249.94,868.08L249.94,1013.21M239.19,868.08l0,40.31M249.94,868.08h-10.75l-20.44,-43.84M249.94,819.71h-10.75M249.94,870.77h-10.75M249.94,817.02h-10.75M72.56,704.14h-5.38M67.19,757.89h-48.38M67.19,752.52h-48.38M18.81,757.89l0,10.75M67.19,757.89l0,10.75M52.41,749.83h-18.81l2.76,-7.58M52.41,749.83l-2.76,-7.58M239.19,701.46h10.75l20.44,43.84M239.19,749.83h10.75M239.19,698.77h10.75M239.19,752.52h10.75M239.19,749.83l0,18.81M249.94,749.83l0,69.88M419.26,596.64l0,-10.75l43.84,-20.44M467.64,596.64l0,-10.75M416.57,596.64l0,-10.75M470.33,596.64l0,-10.75M419.26,585.89H258.01M419.26,596.64H249.94M1273.91,542.89l0,-59.13M1257.78,542.89l0,-43M1963.27,16.13H1273.91M1979.4,0H1257.78M1979.4,182.75l0,-24.19M1963.27,182.75l0,-24.19M1963.27,110.19h16.13M1979.4,158.57l20.44,-43.84M1963.27,158.57h16.13M1963.27,107.5h16.13M1979.4,161.25h-16.13M1963.27,110.19l0,-94.06M1979.4,110.19L1979.4,0M1471.45,247.26h-18.81M1471.45,301.01h-18.81M1452.63,370.88h-25.53M1452.63,387.01h-25.53M1452.63,298.32L1452.63,542.89M1471.45,298.32L1471.45,544.23M1471.45,298.32h-18.81l-20.44,-43.84M1471.45,249.94h-18.81M1463.38,301.01h-10.75M1463.38,247.26h-10.75M1273.91,370.88L1273.91,16.13M1376.04,370.88l0,16.13M1378.72,387.01H1163.72M1378.72,370.88H1273.91M1427.1,370.88l0,16.13l-43.84,20.44M1378.72,370.88l0,16.13M1429.79,370.88l0,16.13M1376.04,376.26l0,10.75M1163.72,499.89l0,-16.13M1257.78,370.88L1257.78,0M1257.78,370.88h-94.07M1257.78,499.89h-94.07M1163.72,387.01l0,-16.13M1273.91,387.01l0,96.75M1257.78,387.01l0,96.75M1241.66,387.01l0,96.75M1225.53,387.01l0,96.75M1209.41,387.01l0,96.75M1455.32,1545.36L1455.32,1359.91M1466.07,1545.36L1466.07,1359.91M1455.32,1545.36h10.75M1440.54,1072.34l0,-99.44M1279.28,1077.72H1386.79M1279.28,1072.34H1386.79M1389.48,954.09l0,18.81M1437.85,972.9l-43.84,20.44M1437.85,954.09l0,18.81M1386.79,954.09l0,18.81M1440.54,972.9l0,-18.81M1389.48,972.9H1279.28M1389.48,954.09H1279.28M1435.17,1072.34l0,5.38M1386.79,1077.72l43.84,20.44M1386.79,1072.34l0,5.38M1437.85,1072.34l0,5.38M1384.1,1077.72l0,-5.38M1435.17,1072.34h5.37M1435.17,1077.72h17.47M717.58,712.2L717.58,561.7M717.58,843.9L717.58,722.96M2269.66,1453.98h53.75M2320.72,1453.98l0,10.75M2323.41,1453.98l0,10.75l56.65,26.42M2387.91,1453.98h53.75M2387.91,1464.73h53.75M2299.23,1463.12h21.5M2299.23,1461.5h21.5M2390.6,1461.5h21.5M2390.6,1463.12h21.5M2299.23,1280.36h21.5M2299.23,1278.75h21.5M2269.66,1271.22h53.75M2269.66,1281.97h53.75M2272.34,1281.97l0,-10.75M2299.23,1281.97l0,-10.75M2296.54,1281.97l0,-10.75M2323.41,1271.22l0,10.75M2320.72,1271.22l0,10.75M2323.41,1281.97l56.65,26.42M2414.78,1281.97l0,-10.75M2412.09,1281.97l0,-10.75M2387.91,1271.22l0,10.75M2438.97,1271.22l0,10.75M2390.6,1271.22l0,10.75M2387.91,1281.97h53.75M2390.6,1280.36h21.5M2390.6,1278.75h21.5M2387.91,1271.22h53.75M1257.78,483.76h-94.07M258.01,585.89l0,-43M537.51,585.89l0,-43" />
<path id="cv_5" class="ZW" d="M1960.58,1333.04A 48.376339 48.376339 0 0 0 1994.79 1318.87M1770.5,1237.01A 48.376339 48.376339 0 0 0 1756.33 1271.22M1851.13,1237.01A 48.376339 48.376339 0 0 0 1836.96 1271.22M1949.84,1271.22A 48.376339 48.376339 0 0 0 1935.67 1237.01M1714.06,1318.86A 48.376339 48.376339 0 0 0 1748.26 1333.04M1885.33,1548.04A 48.376339 48.376339 0 0 0 1899.5 1582.25M1820.83,1144.9A 9.491363 9.491363 0 1 0 1839.64 1144.9M1839.64,1144.9A 81.401875 81.401875 0 0 0 1836.89 1130.98M1823.59,1130.98A 81.401875 81.401875 0 0 0 1820.83 1144.9M1484.88,1400.23A 40.313616 40.313616 0 0 0 1525.2 1359.92M1525.2,1359.91A 40.313616 40.313616 0 0 0 1565.51 1400.23M1517.13,783.76A 9.491363 9.491363 0 1 0 1517.13 764.95M1517.13,764.95A 81.401875 81.401875 0 0 0 1503.21 767.71M1503.21,781A 81.401875 81.401875 0 0 0 1517.12 783.76M1517.13,830.12A 9.491363 9.491363 0 1 0 1517.13 811.31M1503.21,827.36A 81.401875 81.401875 0 0 0 1517.12 830.12M1517.13,811.31A 81.401875 81.401875 0 0 0 1503.21 814.07M1565.92,802.91A 35.276193 35.276193 0 0 0 1530.98 838.52M1565.92,756.55A 35.276193 35.276193 0 0 0 1530.98 792.16M1618.18,772.07A 4.269665 4.269665 0 0 0 1618.76 777.35M1621.95,785.11A 16.186425 16.186425 0 0 0 1618.22 776.68M1618.18,772.07A 16.186425 16.186425 0 0 0 1621.95 763.61M1618.18,818.43A 4.269665 4.269665 0 0 0 1618.76 823.71M1621.95,831.47A 16.186425 16.186425 0 0 0 1618.22 823.05M1618.18,818.43A 16.186425 16.186425 0 0 0 1621.95 809.97M1675.7,549.61A 48.376339 48.376339 0 0 0 1689.87 583.81M1769.03,583.82A 48.376339 48.376339 0 0 0 1783.2 549.61M1767.08,671.89A 9.491363 9.491363 0 1 0 1767.08 653.08M1767.08,653.08A 81.401875 81.401875 0 0 0 1753.16 655.84M1753.15,669.13A 81.401875 81.401875 0 0 0 1767.07 671.89M1767.08,725.64A 9.491363 9.491363 0 1 0 1767.08 706.83M1767.08,706.83A 81.401875 81.401875 0 0 0 1753.16 709.59M1753.15,722.88A 81.401875 81.401875 0 0 0 1767.07 725.64M2038.53,735.05A 48.376339 48.376339 0 0 0 2024.36 700.84M2418.21,605.43A 48.376339 48.376339 0 0 0 2404.03 639.64M2418.21,479.12A 48.376339 48.376339 0 0 0 2404.03 513.32M2146.03,701.46A 48.376339 48.376339 0 0 0 2180.23 687.29M2104.98,602.75A 48.376339 48.376339 0 0 0 2070.78 588.58M2065.4,239.19A 48.376339 48.376339 0 0 0 2031.2 253.36M1064.28,806.27A 48.376339 48.376339 0 0 0 1050.11 772.06M1279.28,1045.46A 48.376339 48.376339 0 0 0 1313.49 1031.3M833.88,1043.51A 48.376339 48.376339 0 0 0 819.71 1077.71M714.89,1072.34A 48.376339 48.376339 0 0 0 700.73 1038.13M556.32,1037.4A 48.376339 48.376339 0 0 0 590.53 1023.24M794.79,1192.55A 48.376339 48.376339 0 0 0 808.96 1158.35M1068.92,1192.55A 48.376339 48.376339 0 0 0 1083.09 1158.35M948.71,1158.34A 48.376339 48.376339 0 0 0 962.88 1192.55M661.88,1118.76A 48.376339 48.376339 0 0 0 647.71 1152.97M954.82,772.06A 48.376339 48.376339 0 0 0 940.65 806.27M836.56,878.1A 48.376339 48.376339 0 0 0 870.77 892.27M590.54,675.31A 48.376339 48.376339 0 0 0 556.33 661.14M556.32,905.71A 48.376339 48.376339 0 0 0 590.53 891.55M590.54,807A 48.376339 48.376339 0 0 0 556.33 792.83M1390.82,561.7A 48.376339 48.376339 0 0 0 1404.99 595.91M1226.26,886.16A 48.376339 48.376339 0 0 0 1260.47 900.34M470.33,1230.91A 48.376339 48.376339 0 0 0 484.49 1265.11M398.49,1111.92A 48.376339 48.376339 0 0 0 432.7 1126.09M379.58,1132.38A 9.491363 9.491363 0 1 0 360.77 1132.37M360.77,1132.37A 81.401875 81.401875 0 0 0 363.52 1146.29M376.82,1146.3A 81.401875 81.401875 0 0 0 379.58 1132.38M286.84,1109.24A 48.376339 48.376339 0 0 0 301.01 1075.03M239.19,1013.21A 48.376339 48.376339 0 0 0 204.99 1027.38M239.19,819.71A 48.376339 48.376339 0 0 0 204.99 833.88M52.41,728.34A 9.491363 9.491363 0 1 0 33.59 728.33M33.59,728.33A 81.401875 81.401875 0 0 0 36.35 742.25M49.65,742.26A 81.401875 81.401875 0 0 0 52.41 728.34M249.94,749.83A 48.376339 48.376339 0 0 0 284.15 735.67M467.64,585.89A 48.376339 48.376339 0 0 0 453.47 551.68M2013.61,124.36A 48.376339 48.376339 0 0 0 1979.4 110.19M1452.63,249.94A 48.376339 48.376339 0 0 0 1418.43 264.11M1378.72,387.01A 48.376339 48.376339 0 0 0 1392.89 421.21M1389.48,972.9A 48.376339 48.376339 0 0 0 1403.64 1007.1M1420.99,1111.93A 48.376339 48.376339 0 0 0 1435.17 1077.72M2373.74,1498.94A 48.376339 48.376339 0 0 0 2387.91 1464.73M2373.74,1316.18A 48.376339 48.376339 0 0 0 2387.91 1281.98" />
<circle id="cv_6" class="ZW" cx="1912.21" cy="663.83" r="12.094085" />
<circle id="cv_7" class="ZW" cx="1912.21" cy="720.27" r="12.094085" />
<circle id="cv_8" class="ZW" cx="1507.76" cy="722.05" r="12.094085" />
<circle id="cv_9" class="ZW" cx="1507.76" cy="672.8" r="12.094085" />
<circle id="cv_10" class="ZW" cx="2230.69" cy="600.67" r="2.687306" />
<circle id="cv_11" class="ZW" cx="2115.23" cy="263.29" r="8.062723" />
<circle id="cv_12" class="ZW" cx="794.18" cy="1057.56" r="2.687306" />
<circle id="cv_13" class="ZW" cx="632.92" cy="1006.5" r="2.687306" />
</g>
<g style="font-family: simplex, , arial, helvetica, sans-serif" stroke="none" fill="#808080">
<g font-size="13.994584" stroke="none" fill="#808080">
<text id="cv_14" transform="scale(1.111111 1) translate(1969.44 414.54) " >UP</text>
</g>
</g>
</g>
<g id="layer_ROOM_NUMBERS_NAMES" class="layer_ROOM_NUMBERS_NAMES"  cvjs:layerName="ROOM_NUMBERS_NAMES" cvjs:plottable="YES"
 cvjs:status="ON" visibility="visible">
<g style="font-family: simplex, , arial, helvetica, sans-serif" stroke="none" fill="#808080">
<g font-size="11.895396" stroke="none" fill="#808080">
<text id="cv_15" transform="scale(1.111111 1) translate(2082.63 1372.51) " >VESTIBULE</text>
<text id="cv_16" transform="scale(1.111111 1) translate(2082.63 1388.96) " >2.103</text>
<text id="cv_17" transform="scale(1.111111 1) translate(2164.79 894.16) " >LOBBY</text>
<text id="cv_18" transform="scale(1.111111 1) translate(2164.79 910.61) " >2.102</text>
<text id="cv_19" transform="scale(1.111111 1) translate(2142.2 578.3) " >VESTIBULE</text>
<text id="cv_20" transform="scale(1.111111 1) translate(2142.2 594.75) " >2.101</text>
<text id="cv_21" transform="scale(1.111111 1) translate(1877.27 517.14) " >JAN.CLO.</text>
<text id="cv_22" transform="scale(1.111111 1) translate(1877.27 533.59) " >2.138</text>
<text id="cv_23" transform="scale(1.111111 1) translate(1885.15 1360.57) " >SIS</text>
<text id="cv_24" transform="scale(1.111111 1) translate(1885.15 1377.02) " >2.129</text>
<text id="cv_25" transform="scale(1.111111 1) translate(1638.86 1356.78) " >SIS</text>
<text id="cv_26" transform="scale(1.111111 1) translate(1638.86 1373.23) " >2.127</text>
<text id="cv_27" transform="scale(1.111111 1) translate(1476.39 1332.06) " >SIS</text>
<text id="cv_28" transform="scale(1.111111 1) translate(1476.39 1348.51) " >2.131</text>
<text id="cv_29" transform="scale(1.111111 1) translate(1795.55 1181.31) " >STORAGE</text>
<text id="cv_30" transform="scale(1.111111 1) translate(1795.55 1197.76) " >2.129</text>
<text id="cv_31" transform="scale(1.111111 1) translate(1528.7 1183.97) " >STORAGE</text>
<text id="cv_32" transform="scale(1.111111 1) translate(1528.7 1200.42) " >2.130</text>
<text id="cv_33" transform="scale(1.111111 1) translate(1635.36 1166.68) " >STAFF TOILET</text>
<text id="cv_34" transform="scale(1.111111 1) translate(1635.36 1183.13) " >2.129A</text>
<text id="cv_35" transform="scale(1.111111 1) translate(1550.28 1007.91) " >MECHANICAL/</text>
<text id="cv_36" transform="scale(1.111111 1) translate(1550.28 1024.35) " >ELECTRICAL</text>
<text id="cv_37" transform="scale(1.111111 1) translate(1550.28 1040.8) " >2.132</text>
<text id="cv_38" transform="scale(1.111111 1) translate(1380.21 706.01) " >MEN'S LOCKERS</text>
<text id="cv_39" transform="scale(1.111111 1) translate(1380.21 722.46) " >2.133</text>
<text id="cv_40" transform="scale(1.111111 1) translate(1607.09 713.61) " >WOMEN'S LOCKERS</text>
<text id="cv_41" transform="scale(1.111111 1) translate(1607.09 730.06) " >2.134</text>
<text id="cv_42" transform="scale(1.111111 1) translate(1532.74 354.07) " >STALL LOUNGE</text>
<text id="cv_43" transform="scale(1.111111 1) translate(1532.74 370.51) " >2.135</text>
<text id="cv_44" transform="scale(1.111111 1) translate(1952.01 471.09) " >STAIR #1</text>
<text id="cv_45" transform="scale(1.111111 1) translate(1952.01 487.54) " >2.136</text>
<text id="cv_46" transform="scale(1.111111 1) translate(1456.12 87.3) " >STAFF</text>
<text id="cv_47" transform="scale(1.111111 1) translate(1456.12 103.75) " >GARDEN</text>
<text id="cv_48" transform="scale(1.111111 1) translate(1200.56 791.86) " >MAILROOM</text>
<text id="cv_49" transform="scale(1.111111 1) translate(1200.56 808.31) " >2.139</text>
<text id="cv_50" transform="scale(1.111111 1) translate(951.15 696.28) " >OFFICE</text>
<text id="cv_51" transform="scale(1.111111 1) translate(951.15 712.73) " >2.157</text>
<text id="cv_52" transform="scale(1.111111 1) translate(980.7 1255.54) " >ADMIN #2</text>
<text id="cv_53" transform="scale(1.111111 1) translate(980.7 1271.99) " >2.158</text>
<text id="cv_54" transform="scale(1.111111 1) translate(794.34 1231.63) " >ADMIN #1</text>
<text id="cv_55" transform="scale(1.111111 1) translate(794.34 1248.07) " >2.159</text>
<text id="cv_56" transform="scale(1.111111 1) translate(686.02 1242.72) " >STOR.</text>
<text id="cv_57" transform="scale(1.111111 1) translate(686.02 1259.17) " >2.160</text>
<text id="cv_58" transform="scale(1.111111 1) translate(550.47 1237.06) " >HOLDING</text>
<text id="cv_59" transform="scale(1.111111 1) translate(550.47 1253.51) " >2.147</text>
<text id="cv_60" transform="scale(1.111111 1) translate(890.89 990.48) " >RECORDS</text>
<text id="cv_61" transform="scale(1.111111 1) translate(890.89 1006.93) " >2.153</text>
<text id="cv_62" transform="scale(1.111111 1) translate(743.01 681.65) " >FILES</text>
<text id="cv_63" transform="scale(1.111111 1) translate(743.01 698.1) " >2.156</text>
<text id="cv_64" transform="scale(1.111111 1) translate(681.59 899.5) " >STORAGE</text>
<text id="cv_65" transform="scale(1.111111 1) translate(681.59 915.95) " >2.155</text>
<text id="cv_66" transform="scale(1.111111 1) translate(699.77 1035.21) " >JAN. CLOS.</text>
<text id="cv_67" transform="scale(1.111111 1) translate(699.77 1051.66) " >2.154</text>
<text id="cv_68" transform="scale(1.111111 1) translate(604.94 1001.95) " >TOILET</text>
<text id="cv_69" transform="scale(1.111111 1) translate(604.94 1018.4) " >2.144</text>
<text id="cv_70" transform="scale(1.111111 1) translate(523.53 1115.42) " >CORRIDOR</text>
<text id="cv_71" transform="scale(1.111111 1) translate(523.53 1131.86) " >2.146</text>
<text id="cv_72" transform="scale(1.111111 1) translate(490.47 1009.11) " >SHOWER</text>
<text id="cv_73" transform="scale(1.111111 1) translate(490.47 1025.55) " >2.145</text>
<text id="cv_74" transform="scale(1.111111 1) translate(559.2 904.88) " >EXAM</text>
<text id="cv_75" transform="scale(1.111111 1) translate(559.2 921.33) " >2.143</text>
<text id="cv_76" transform="scale(1.111111 1) translate(560.27 792.43) " >EXAM</text>
<text id="cv_77" transform="scale(1.111111 1) translate(560.27 808.87) " >2.142</text>
<text id="cv_78" transform="scale(1.111111 1) translate(561.94 657.58) " >OFFICE</text>
<text id="cv_79" transform="scale(1.111111 1) translate(561.94 674.03) " >2.141</text>
<text id="cv_80" transform="scale(1.111111 1) translate(316.87 886.25) " >PROCESSING</text>
<text id="cv_81" transform="scale(1.111111 1) translate(316.87 902.7) " >2.140</text>
<text id="cv_82" transform="scale(1.111111 1) translate(108.85 694.1) " >HOLDING</text>
<text id="cv_83" transform="scale(1.111111 1) translate(108.85 710.55) " >2.152</text>
<text id="cv_84" transform="scale(1.111111 1) translate(74.8 840.61) " >PACKAGE</text>
<text id="cv_85" transform="scale(1.111111 1) translate(74.8 857.06) " >STORAGE</text>
<text id="cv_86" transform="scale(1.111111 1) translate(74.8 873.51) " >2.151</text>
<text id="cv_87" transform="scale(1.111111 1) translate(75.64 1025.85) " >PERSONAL</text>
<text id="cv_88" transform="scale(1.111111 1) translate(75.64 1042.3) " >PROPERTY</text>
<text id="cv_89" transform="scale(1.111111 1) translate(75.64 1058.75) " >2.150</text>
<text id="cv_90" transform="scale(1.111111 1) translate(223.33 1232.87) " >CLOTHING</text>
<text id="cv_91" transform="scale(1.111111 1) translate(223.33 1249.32) " >2.149</text>
<text id="cv_92" transform="scale(1.111111 1) translate(319.33 1136.23) " >TOILET</text>
<text id="cv_93" transform="scale(1.111111 1) translate(319.33 1152.68) " >2.148</text>
</g>
</g>
</g>
<g id="layer_Security" class="layer_Security"  cvjs:layerName="Security" cvjs:plottable="YES"
 cvjs:status="ON" visibility="visible">
<g id="cvclr_94" stroke="#808080" fill="none">
<path id="cv_95" class=" ZW" d="M2460.45,1406.79l0.05,64.5l5.38,-0l-0.05,-64.5l-5.38,0" />
</g>
</g>
<g id="layer_ETI_20__2D__20_REV01" class="layer_ETI_20__2D__20_REV01"  cvjs:layerName="ETI - REV01" cvjs:plottable="YES"
 cvjs:status="ON" visibility="visible">
<g id="cvclr_96" stroke="#F00" fill="none">
<path id="cv_97" class="nZW sLW_0_6" d="M1703.52,833.77l0,14.53" />
<path id="cv_98" class="nZW sLW_0_6" d="M1710.61,837.4A 8.987160 8.987160 0 0 0 1695.99 837.66" />
</g>
<g class="OLDRAI" id="cv_Block_OLDRAI_1">
<g id="cvclr_99" stroke="none" fill="#FFF" opacity="1.">
<path id="cv_100" d="M1653.79,775.59h41.15v-24.11h-41.15v24.11 Z "/>
</g>
<g id="cvclr_101" stroke="#000" fill="none">
<path id="cv_102" class="ZW" d="M1653.79,775.59h41.15l0,-24.11h-41.15l0,24.11" />
</g>
<g id="cvclr_103" stroke="#F0F" fill="none">
<g style="font-family: arial, helvetica, sans-serif" stroke="none" fill="#000">
<g font-size="15.873486" stroke="none" fill="#000">
<text id="cv_104" transform="scale(1.055556 1) translate(1570.33 769.83) "  cvjs:tag='RAI' >PRN</text>
</g>
</g>
<g style="font-family: simplex, , arial, helvetica, sans-serif" stroke="none" fill="#000">
<g font-size="9.718461" stroke="none" fill="#000">
<text id="cv_105" transform="scale(1.111111 1) translate(1480.27 793.54) "  cvjs:tag='FWK_DEVICE_ADDRESSES' >0000240003</text>
</g>
</g>
</g>
</g>
<g class="RGVMSDH" id="cv_Block_RGVMSDH_2">
<g id="cvclr_106" stroke="none" fill="#FFF" opacity="1.">
<path id="cv_107" d="M1679.12,811.53h30.83v19.35h-30.83v-19.35 Z "/>
</g>
<g id="cvclr_108" stroke="#000" fill="none">
<path id="cv_109" class="ZW" d="M1679.12,811.53h30.83l0,19.35h-30.83l0,-19.35" />
</g>
<g id="cvclr_110" stroke="#F0F" fill="none">
<g style="font-family: arial, helvetica, sans-serif" stroke="none" fill="#FF0">
<g font-size="15.238547" stroke="none" fill="#FF0">
<text id="cv_111" transform="scale(1.055556 1) translate(1600.98 827.25) "  cvjs:tag='MSDH' >M</text>
</g>
</g>
</g>
<g id="cvclr_112" stroke="#FF0" fill="none">
<g style="font-family: simplex, , arial, helvetica, sans-serif" stroke="none" fill="#000">
<g font-size="13.994584" stroke="none" fill="#000">
<text id="cv_113" transform="scale(1.111111 1) translate(1486.33 855.88) "  cvjs:tag='FWK_DEVICE_ADDRESSES' >0000280003</text>
</g>
</g>
</g>
</g>
<g class="LOGIC" id="cv_Block_LOGIC_3">
<g id="cvclr_114" stroke="#F0F" fill="none">
<path id="cv_115" class="nZW sLW_0_6" d="M1751.92,749.85l-11.55,27.75l11.81,23.55M1752.16,801.18l13.95,-23.37l-14.19,-27.96" />
</g>
<g id="cvclr_116" stroke="#000" fill="none">
</g>
</g>
<g class="LOGIC" id="cv_Block_LOGIC_4">
<g id="cvclr_117" stroke="#F0F" fill="none">
<path id="cv_118" class="nZW sLW_0_6" d="M1777.49,750.92l-11.55,27.75l11.81,23.55M1777.74,802.25l13.95,-23.37l-14.19,-27.96" />
</g>
<g id="cvclr_119" stroke="#000" fill="none">
</g>
</g>
<g class="LOGIC" id="cv_Block_LOGIC_5">
<g id="cvclr_120" stroke="#F0F" fill="none">
<path id="cv_121" class="nZW sLW_0_6" d="M1806.38,750.92l-11.55,27.75l11.81,23.55M1806.63,802.25l13.95,-23.37l-14.19,-27.96" />
</g>
<g id="cvclr_122" stroke="#000" fill="none">
</g>
</g>
<g class="ACFAIL" id="cv_Block_ACFAIL_6">
<g id="cvclr_123" stroke="none" fill="#FFF" opacity="1.">
<path id="cv_124" d="M832.16,1060.54h36.42v-19.77h-36.42v19.77 Z "/>
</g>
<g id="cvclr_125" stroke="#000" fill="none">
<path id="cv_126" class="nZW sLW_0_6" d="M848.23,1060.54l0,-0.04l0,-19.73M848.23,1060.54l10.5,-10.5M833.04,1056.25l13,-13M838.08,1043.33l1.68,-2.41M838.08,1051.26l7.23,-10.33M838.08,1059.18l12.78,-18.25M842.59,1060.67l13.82,-19.74M848.14,1060.67l13.82,-19.74M853.69,1060.67l10.09,-14.41M859.24,1060.67l4.54,-6.49" />
</g>
<g id="cvclr_127" stroke="#0F0" fill="none">
<path id="cv_128" class=" nZW sLW_0_6" d="M838.08,1040.93h25.7v19.74h-25.7v-19.74" />
<path id="cv_129" class="nZW sLW_0_6" d="M832.16,1060.54h36.42l0,-19.77h-36.42l0,19.77" />
</g>
<g id="cvclr_130" stroke="#F0F" fill="none">
<g style="font-family: simplex, , arial, helvetica, sans-serif" stroke="none" fill="#000">
<g font-size="7.969138" stroke="none" fill="#000">
<text id="cv_131" transform="scale(1.111111 1) translate(742.27 1075.26) "  cvjs:tag='FWK_DEVICE_ADDRESSES' >0010030008</text>
</g>
</g>
</g>
</g>
</g>
<g id="layer_ETI_20__2D__20_ADDRESSABLE_20_DEVICE_block" class="layer_ETI_20__2D__20_ADDRESSABLE_20_DEVICE_block"  cvjs:layerName="ETI - ADDRESSABLE DEVICE" cvjs:plottable="YES"
 cvjs:status="ON" visibility="visible">
<g class="SIGA_2D_PS cvjs_block AcDbBlockReference" cvjs:handle='5F5FB8BE' id="cv_Block_SIGA_2D_PS_7" cvjs:block='SIGA_2D_PS_7' cvjs:attribId='cv_Attrib_1' cvjs:attribCount="3" >
<g id="cvclr_132" stroke="none" fill="#FFF" opacity="1.">
<path id="cv_133" d="M1745.77,405.91l-6.01,-10.41h-12.03l-6.01,10.41l6.01,10.41h12.03l6.01,-10.41 Z "/>
</g>
<g id="cvclr_134" stroke="#F00" fill="none">
<path id="cv_135" class="nZW sLW_0_6" d="M1745.77,405.91l-6.01,-10.41h-12.03l-6.01,10.41l6.01,10.41h12.03l6.01,-10.41" />
<g style="font-family: simplex, , arial, helvetica, sans-serif" stroke="none" fill="#F00">
<g font-size="10.884676" stroke="none" fill="#F00">
<text id="cv_136" transform="scale(1.111111 1) translate(1540.85 426.19) "  cvjs:tag='FWK_DEVICE_ADDRESSES' >0010020132</text>
</g>
</g>
<path id="cv_137" class = "ZW cvjs_nodes" cvjs:node='NODE_1' cvjs:roomName='5F5FB8BE' cvjs:roomId='5F5FB8BE' cvjs:block='SIGA_2D_PS_7' cvjs:attribId='cv_Attrib_1' cvjs:attribCount="3" fill="transparent" d="M1721.72,395.5h24.051493v20.829204h-24.051493v-20.829204" />
</g>
<g id="cvclr_138" stroke="#000" fill="none">
<g style="font-family: simplex, , arial, helvetica, sans-serif" stroke="none" fill="#000">
<g font-size="13.994584" stroke="none" fill="#000">
<text id="cv_139" transform="scale(1.111111 1) translate(1548.69 412.16) "  cvjs:tag='SIGA-PS' >AIM</text>
</g>
</g>
</g>
<cvjs:attributes  id="cv_Attrib_1" >
<cvjs:attribute  id="cv_Attrib_1_1" cvjs:tag="SIGA-PS" cvjs:value="AIM" />
<cvjs:attribute  id="cv_Attrib_1_2" cvjs:tag="FWK_DEVICE_ADDRESSES" cvjs:value="0010020132" />
<cvjs:attribute  id="cv_Attrib_1_3" cvjs:tag="FWK_DEVICE_TYPE" cvjs:value="MONITOR" />
</cvjs:attributes>
</g>
<g class="SIGA_2D_PS cvjs_block AcDbBlockReference" cvjs:handle='5F5FB90C' id="cv_Block_SIGA_2D_PS_8" cvjs:block='SIGA_2D_PS_8' cvjs:attribId='cv_Attrib_2' cvjs:attribCount="3" >
<g id="cvclr_140" stroke="none" fill="#FFF" opacity="1.">
<path id="cv_141" d="M1105.69,633.24l-6.01,-10.41h-12.03l-6.01,10.41l6.01,10.41h12.03l6.01,-10.41 Z "/>
</g>
<g id="cvclr_142" stroke="#F00" fill="none">
<path id="cv_143" class="ZW" d="M1105.69,633.24l-6.01,-10.41h-12.03l-6.01,10.41l6.01,10.41h12.03l6.01,-10.41" />
<g style="font-family: simplex, , arial, helvetica, sans-serif" stroke="none" fill="#F00">
<g font-size="10.884676" stroke="none" fill="#F00">
<text id="cv_144" transform="scale(1.111111 1) translate(964.78 653.52) "  cvjs:tag='FWK_DEVICE_ADDRESSES' >0010020379</text>
</g>
</g>
<path id="cv_145" class = "ZW cvjs_nodes" cvjs:node='NODE_2' cvjs:roomName='5F5FB90C' cvjs:roomId='5F5FB90C' cvjs:block='SIGA_2D_PS_8' cvjs:attribId='cv_Attrib_2' cvjs:attribCount="3" fill="transparent" d="M1081.64,622.82h24.051493v20.829204h-24.051493v-20.829204" />
</g>
<g id="cvclr_146" stroke="#000" fill="none">
<g style="font-family: simplex, , arial, helvetica, sans-serif" stroke="none" fill="#000">
<g font-size="13.994584" stroke="none" fill="#000">
<text id="cv_147" transform="scale(1.111111 1) translate(980.91 639.49) "  cvjs:tag='SIGA-PS' >S</text>
</g>
</g>
</g>
<cvjs:attributes  id="cv_Attrib_2" >
<cvjs:attribute  id="cv_Attrib_2_1" cvjs:tag="SIGA-PS" cvjs:value="S" />
<cvjs:attribute  id="cv_Attrib_2_2" cvjs:tag="FWK_DEVICE_ADDRESSES" cvjs:value="0010020379" />
<cvjs:attribute  id="cv_Attrib_2_3" cvjs:tag="FWK_DEVICE_TYPE" cvjs:value="SMOKE" />
</cvjs:attributes>
</g>
</g>
</g></svg>